<?xml version="1.0" encoding="UTF-8" standalone="no"?>
<!DOCTYPE svg PUBLIC "-//W3C//DTD SVG 1.1//EN"
 "http://www.w3.org/Graphics/SVG/1.1/DTD/svg11.dtd">
<!-- Generated by graphviz version 2.44.0 (20200408.0750)
 -->
<!-- Title: main Pages: 1 -->
<svg width="512pt" height="468pt"
 viewBox="0.00 0.00 512.00 467.60" xmlns="http://www.w3.org/2000/svg" xmlns:xlink="http://www.w3.org/1999/xlink">
<g id="graph0" class="graph" transform="scale(1 1) rotate(0) translate(4 463.6)">
<title>main</title>
<polygon fill="white" stroke="transparent" points="-4,4 -4,-463.6 508,-463.6 508,4 -4,4"/>
<!-- Node1 -->
<g id="node1" class="node">
<title>Node1</title>
<g id="a_node1"><a xlink:title=" ">
<polygon fill="#bfbfbf" stroke="black" points="0,-231.1 0,-250.1 38,-250.1 38,-231.1 0,-231.1"/>
<text text-anchor="middle" x="19" y="-238.1" font-family="Helvetica,sans-Serif" font-size="10.00">main</text>
</a>
</g>
</g>
<!-- Node2 -->
<g id="node2" class="node">
<title>Node2</title>
<g id="a_node2"><a xlink:href="../../d2/df6/kohonen__som__topology_8c.html#a2256c10b16edba377b64a44b6c656908" target="_top" xlink:title=" ">
<polygon fill="white" stroke="black" points="74,-307.1 74,-326.1 151,-326.1 151,-307.1 74,-307.1"/>
<text text-anchor="middle" x="112.5" y="-314.1" font-family="Helvetica,sans-Serif" font-size="10.00">get_clock_diff</text>
</a>
</g>
</g>
<!-- Node1&#45;&gt;Node2 -->
<g id="edge1" class="edge">
<title>Node1&#45;&gt;Node2</title>
<path fill="none" stroke="midnightblue" d="M27.56,-250.46C37.29,-262.67 55.2,-283.59 74,-297.6 76.05,-299.13 78.24,-300.59 80.49,-301.98"/>
<polygon fill="midnightblue" stroke="midnightblue" points="78.9,-305.11 89.33,-306.96 82.33,-299 78.9,-305.11"/>
</g>
<!-- Node3 -->
<g id="node3" class="node">
<title>Node3</title>
<g id="a_node3"><a xlink:href="../../d2/df6/kohonen__som__topology_8c.html#a1440a7779ac56f47a3f355ce4a8c7da0" target="_top" xlink:title=" ">
<polygon fill="white" stroke="black" points="93.5,-269.1 93.5,-288.1 131.5,-288.1 131.5,-269.1 93.5,-269.1"/>
<text text-anchor="middle" x="112.5" y="-276.1" font-family="Helvetica,sans-Serif" font-size="10.00">test1</text>
</a>
</g>
</g>
<!-- Node1&#45;&gt;Node3 -->
<g id="edge2" class="edge">
<title>Node1&#45;&gt;Node3</title>
<path fill="none" stroke="midnightblue" d="M38.08,-248.11C51.24,-253.57 69.29,-261.07 84.2,-267.26"/>
<polygon fill="midnightblue" stroke="midnightblue" points="82.88,-270.51 93.46,-271.11 85.57,-264.04 82.88,-270.51"/>
</g>
<!-- Node12 -->
<g id="node12" class="node">
<title>Node12</title>
<g id="a_node12"><a xlink:href="../../d2/df6/kohonen__som__topology_8c.html#a0283886819c7c140a023582b7269e2d0" target="_top" xlink:title=" ">
<polygon fill="white" stroke="black" points="93.5,-212.1 93.5,-231.1 131.5,-231.1 131.5,-212.1 93.5,-212.1"/>
<text text-anchor="middle" x="112.5" y="-219.1" font-family="Helvetica,sans-Serif" font-size="10.00">test2</text>
</a>
</g>
</g>
<!-- Node1&#45;&gt;Node12 -->
<g id="edge14" class="edge">
<title>Node1&#45;&gt;Node12</title>
<path fill="none" stroke="midnightblue" d="M38.08,-236.85C50.99,-234.17 68.6,-230.51 83.34,-227.45"/>
<polygon fill="midnightblue" stroke="midnightblue" points="84.38,-230.81 93.46,-225.35 82.96,-223.95 84.38,-230.81"/>
</g>
<!-- Node14 -->
<g id="node14" class="node">
<title>Node14</title>
<g id="a_node14"><a xlink:href="../../d2/df6/kohonen__som__topology_8c.html#a6d0455dd5c30adda100e95f0423c786e" target="_top" xlink:title=" ">
<polygon fill="white" stroke="black" points="93.5,-98.1 93.5,-117.1 131.5,-117.1 131.5,-98.1 93.5,-98.1"/>
<text text-anchor="middle" x="112.5" y="-105.1" font-family="Helvetica,sans-Serif" font-size="10.00">test3</text>
</a>
</g>
</g>
<!-- Node1&#45;&gt;Node14 -->
<g id="edge22" class="edge">
<title>Node1&#45;&gt;Node14</title>
<path fill="none" stroke="midnightblue" d="M26.58,-231.04C41.74,-209 79.33,-154.36 99.02,-125.74"/>
<polygon fill="midnightblue" stroke="midnightblue" points="101.95,-127.66 104.73,-117.44 96.18,-123.69 101.95,-127.66"/>
</g>
<!-- Node4 -->
<g id="node4" class="node">
<title>Node4</title>
<g id="a_node4"><a xlink:href="../../d2/df6/kohonen__som__topology_8c.html#af5ce14f026d6d231bef29161bac2b485" target="_top" xlink:title=" ">
<polygon fill="white" stroke="black" points="331.5,-231.1 331.5,-250.1 385.5,-250.1 385.5,-231.1 331.5,-231.1"/>
<text text-anchor="middle" x="358.5" y="-238.1" font-family="Helvetica,sans-Serif" font-size="10.00">_random</text>
</a>
</g>
</g>
<!-- Node3&#45;&gt;Node4 -->
<g id="edge3" class="edge">
<title>Node3&#45;&gt;Node4</title>
<path fill="none" stroke="midnightblue" d="M131.52,-285.34C138.14,-288.4 145.39,-292.49 151,-297.6 173.16,-317.77 160.76,-340.14 187,-354.6 223.2,-374.55 243.47,-373.94 280,-354.6 317.91,-334.54 340.72,-286.7 351,-259.8"/>
<polygon fill="midnightblue" stroke="midnightblue" points="354.32,-260.91 354.43,-250.31 347.74,-258.53 354.32,-260.91"/>
</g>
<!-- Node5 -->
<g id="node5" class="node">
<title>Node5</title>
<g id="a_node5"><a xlink:href="../../d2/df6/kohonen__som__topology_8c.html#a7237d2cf3b3f9d034477268c1d6631da" target="_top" xlink:title=" ">
<polygon fill="white" stroke="black" points="445,-174.1 445,-193.1 496,-193.1 496,-174.1 445,-174.1"/>
<text text-anchor="middle" x="470.5" y="-181.1" font-family="Helvetica,sans-Serif" font-size="10.00">data_3d</text>
</a>
</g>
</g>
<!-- Node3&#45;&gt;Node5 -->
<g id="edge4" class="edge">
<title>Node3&#45;&gt;Node5</title>
<path fill="none" stroke="midnightblue" d="M131.51,-284.79C138.28,-287.82 145.63,-292.03 151,-297.6 177.5,-325.09 154.84,-355.02 187,-375.6 221.82,-397.88 241.65,-391.02 280,-375.6 366.9,-340.68 433.66,-243.16 458.73,-202.15"/>
<polygon fill="midnightblue" stroke="midnightblue" points="461.81,-203.81 463.94,-193.44 455.8,-200.22 461.81,-203.81"/>
</g>
<!-- Node6 -->
<g id="node6" class="node">
<title>Node6</title>
<g id="a_node6"><a xlink:href="../../d2/df6/kohonen__som__topology_8c.html#a1983dc0f35e734015772e9f8c0ff19f5" target="_top" xlink:title=" ">
<polygon fill="white" stroke="black" points="195,-288.1 195,-307.1 272,-307.1 272,-288.1 195,-288.1"/>
<text text-anchor="middle" x="233.5" y="-295.1" font-family="Helvetica,sans-Serif" font-size="10.00">kohonen_som</text>
</a>
</g>
</g>
<!-- Node3&#45;&gt;Node6 -->
<g id="edge5" class="edge">
<title>Node3&#45;&gt;Node6</title>
<path fill="none" stroke="midnightblue" d="M131.57,-281.49C145.62,-283.73 165.77,-286.95 184.39,-289.92"/>
<polygon fill="midnightblue" stroke="midnightblue" points="184.09,-293.42 194.52,-291.54 185.2,-286.5 184.09,-293.42"/>
</g>
<!-- Node9 -->
<g id="node9" class="node">
<title>Node9</title>
<g id="a_node9"><a xlink:href="../../d2/df6/kohonen__som__topology_8c.html#a6824dc6d973eb3339af7aef5fea78b0c" target="_top" xlink:title=" ">
<polygon fill="white" stroke="black" points="195,-136.1 195,-155.1 272,-155.1 272,-136.1 195,-136.1"/>
<text text-anchor="middle" x="233.5" y="-143.1" font-family="Helvetica,sans-Serif" font-size="10.00">save_2d_data</text>
</a>
</g>
</g>
<!-- Node3&#45;&gt;Node9 -->
<g id="edge9" class="edge">
<title>Node3&#45;&gt;Node9</title>
<path fill="none" stroke="midnightblue" d="M123.25,-269.1C130.93,-261.52 141.84,-250.56 151,-240.6 175.25,-214.26 202.04,-182.47 218.06,-163.16"/>
<polygon fill="midnightblue" stroke="midnightblue" points="220.94,-165.17 224.62,-155.23 215.55,-160.71 220.94,-165.17"/>
</g>
<!-- Node10 -->
<g id="node10" class="node">
<title>Node10</title>
<g id="a_node10"><a xlink:href="../../d2/df6/kohonen__som__topology_8c.html#adee1bc3871c881f6e04cb9e0b1d01158" target="_top" xlink:title=" ">
<polygon fill="white" stroke="black" points="193.5,-98.1 193.5,-117.1 273.5,-117.1 273.5,-98.1 193.5,-98.1"/>
<text text-anchor="middle" x="233.5" y="-105.1" font-family="Helvetica,sans-Serif" font-size="10.00">save_u_matrix</text>
</a>
</g>
</g>
<!-- Node3&#45;&gt;Node10 -->
<g id="edge10" class="edge">
<title>Node3&#45;&gt;Node10</title>
<path fill="none" stroke="midnightblue" d="M125.85,-268.81C134.02,-261.74 144.4,-251.56 151,-240.6 178.42,-195.09 151.15,-165.82 187,-126.6 188.19,-125.3 189.49,-124.08 190.86,-122.95"/>
<polygon fill="midnightblue" stroke="midnightblue" points="193,-125.72 199.42,-117.29 189.15,-119.88 193,-125.72"/>
</g>
<!-- Node11 -->
<g id="node11" class="node">
<title>Node11</title>
<g id="a_node11"><a xlink:href="../../d2/df6/kohonen__som__topology_8c.html#adb5ded007be1fd666fab9affe6764018" target="_top" xlink:title=" ">
<polygon fill="white" stroke="black" points="189.5,-326.1 189.5,-345.1 277.5,-345.1 277.5,-326.1 189.5,-326.1"/>
<text text-anchor="middle" x="233.5" y="-333.1" font-family="Helvetica,sans-Serif" font-size="10.00">test_2d_classes</text>
</a>
</g>
</g>
<!-- Node3&#45;&gt;Node11 -->
<g id="edge12" class="edge">
<title>Node3&#45;&gt;Node11</title>
<path fill="none" stroke="midnightblue" d="M131.84,-287.82C137.95,-290.91 144.78,-294.38 151,-297.6 167.07,-305.91 170.64,-308.89 187,-316.6 190.83,-318.41 194.88,-320.23 198.93,-321.99"/>
<polygon fill="midnightblue" stroke="midnightblue" points="197.66,-325.25 208.24,-325.94 200.4,-318.81 197.66,-325.25"/>
</g>
<!-- Node7 -->
<g id="node7" class="node">
<title>Node7</title>
<g id="a_node7"><a xlink:href="../../d2/df6/kohonen__som__topology_8c.html#ad139de302fa8135a433d9c1bf971b13b" target="_top" xlink:title=" ">
<polygon fill="white" stroke="black" points="316,-440.1 316,-459.1 401,-459.1 401,-440.1 316,-440.1"/>
<text text-anchor="middle" x="358.5" y="-447.1" font-family="Helvetica,sans-Serif" font-size="10.00">update_weights</text>
</a>
</g>
</g>
<!-- Node6&#45;&gt;Node7 -->
<g id="edge6" class="edge">
<title>Node6&#45;&gt;Node7</title>
<path fill="none" stroke="midnightblue" d="M265.46,-307.31C270.67,-309.81 275.75,-312.88 280,-316.6 316.36,-348.45 340.03,-401.7 350.79,-430.2"/>
<polygon fill="midnightblue" stroke="midnightblue" points="347.58,-431.61 354.28,-439.81 354.16,-429.22 347.58,-431.61"/>
</g>
<!-- Node7&#45;&gt;Node5 -->
<g id="edge7" class="edge">
<title>Node7&#45;&gt;Node5</title>
<path fill="none" stroke="midnightblue" d="M383.42,-439.87C389.91,-436.23 396.4,-431.51 401,-425.6 454.52,-356.8 466.23,-248.15 468.78,-203.63"/>
<polygon fill="midnightblue" stroke="midnightblue" points="472.29,-203.69 469.27,-193.53 465.29,-203.35 472.29,-203.69"/>
</g>
<!-- Node8 -->
<g id="node8" class="node">
<title>Node8</title>
<g id="a_node8"><a xlink:href="../../d2/df6/kohonen__som__topology_8c.html#adc22d512c00a9f5799ee067f4fb90b4b" target="_top" xlink:title=" ">
<polygon fill="white" stroke="black" points="437,-440.1 437,-459.1 504,-459.1 504,-440.1 437,-440.1"/>
<text text-anchor="middle" x="470.5" y="-447.1" font-family="Helvetica,sans-Serif" font-size="10.00">get_min_2d</text>
</a>
</g>
</g>
<!-- Node7&#45;&gt;Node8 -->
<g id="edge8" class="edge">
<title>Node7&#45;&gt;Node8</title>
<path fill="none" stroke="midnightblue" d="M401.09,-449.6C409.48,-449.6 418.31,-449.6 426.74,-449.6"/>
<polygon fill="midnightblue" stroke="midnightblue" points="426.77,-453.1 436.77,-449.6 426.77,-446.1 426.77,-453.1"/>
</g>
<!-- Node10&#45;&gt;Node5 -->
<g id="edge11" class="edge">
<title>Node10&#45;&gt;Node5</title>
<path fill="none" stroke="midnightblue" d="M264.26,-117.23C307.99,-131.37 389.37,-157.69 435.43,-172.58"/>
<polygon fill="midnightblue" stroke="midnightblue" points="434.38,-175.92 444.97,-175.67 436.53,-169.26 434.38,-175.92"/>
</g>
<!-- Node11&#45;&gt;Node4 -->
<g id="edge13" class="edge">
<title>Node11&#45;&gt;Node4</title>
<path fill="none" stroke="midnightblue" d="M262.31,-325.96C268.37,-323.33 274.58,-320.2 280,-316.6 304.88,-300.1 328.64,-274.93 343.14,-258.13"/>
<polygon fill="midnightblue" stroke="midnightblue" points="346.06,-260.09 349.84,-250.2 340.71,-255.58 346.06,-260.09"/>
</g>
<!-- Node12&#45;&gt;Node4 -->
<g id="edge15" class="edge">
<title>Node12&#45;&gt;Node4</title>
<path fill="none" stroke="midnightblue" d="M131.84,-223.03C171.97,-226.15 268.18,-233.65 321.1,-237.77"/>
<polygon fill="midnightblue" stroke="midnightblue" points="321.14,-241.28 331.39,-238.57 321.69,-234.3 321.14,-241.28"/>
</g>
<!-- Node12&#45;&gt;Node5 -->
<g id="edge16" class="edge">
<title>Node12&#45;&gt;Node5</title>
<path fill="none" stroke="midnightblue" d="M131.64,-219.66C187.82,-213.67 359.61,-195.33 434.25,-187.36"/>
<polygon fill="midnightblue" stroke="midnightblue" points="434.97,-190.81 444.54,-186.27 434.22,-183.85 434.97,-190.81"/>
</g>
<!-- Node12&#45;&gt;Node6 -->
<g id="edge17" class="edge">
<title>Node12&#45;&gt;Node6</title>
<path fill="none" stroke="midnightblue" d="M124.3,-231.47C138.07,-243.69 163,-264.62 187,-278.6 190.22,-280.48 193.66,-282.27 197.16,-283.94"/>
<polygon fill="midnightblue" stroke="midnightblue" points="195.86,-287.2 206.42,-288.1 198.73,-280.81 195.86,-287.2"/>
</g>
<!-- Node12&#45;&gt;Node9 -->
<g id="edge18" class="edge">
<title>Node12&#45;&gt;Node9</title>
<path fill="none" stroke="midnightblue" d="M125.91,-212.07C140.25,-201.23 164.75,-183.26 187,-169.6 192.27,-166.37 198.01,-163.13 203.59,-160.13"/>
<polygon fill="midnightblue" stroke="midnightblue" points="205.48,-163.08 212.7,-155.33 202.22,-156.89 205.48,-163.08"/>
</g>
<!-- Node12&#45;&gt;Node10 -->
<g id="edge19" class="edge">
<title>Node12&#45;&gt;Node10</title>
<path fill="none" stroke="midnightblue" d="M118.7,-211.91C129.24,-193.08 154.89,-151.21 187,-126.6 189.29,-124.84 191.77,-123.22 194.35,-121.72"/>
<polygon fill="midnightblue" stroke="midnightblue" points="196.04,-124.79 203.35,-117.13 192.86,-118.56 196.04,-124.79"/>
</g>
<!-- Node13 -->
<g id="node13" class="node">
<title>Node13</title>
<g id="a_node13"><a xlink:href="../../d2/df6/kohonen__som__topology_8c.html#ad9e25202bb8b481461f932668f249dbc" target="_top" xlink:title=" ">
<polygon fill="white" stroke="black" points="187,-250.1 187,-269.1 280,-269.1 280,-250.1 187,-250.1"/>
<text text-anchor="middle" x="233.5" y="-257.1" font-family="Helvetica,sans-Serif" font-size="10.00">test_3d_classes1</text>
</a>
</g>
</g>
<!-- Node12&#45;&gt;Node13 -->
<g id="edge20" class="edge">
<title>Node12&#45;&gt;Node13</title>
<path fill="none" stroke="midnightblue" d="M131.57,-227.37C147.85,-232.57 172.34,-240.39 193.12,-247.03"/>
<polygon fill="midnightblue" stroke="midnightblue" points="192.07,-250.37 202.67,-250.07 194.2,-243.7 192.07,-250.37"/>
</g>
<!-- Node13&#45;&gt;Node4 -->
<g id="edge21" class="edge">
<title>Node13&#45;&gt;Node4</title>
<path fill="none" stroke="midnightblue" d="M280.3,-252.53C293.75,-250.45 308.27,-248.21 321.05,-246.23"/>
<polygon fill="midnightblue" stroke="midnightblue" points="321.96,-249.63 331.31,-244.65 320.89,-242.71 321.96,-249.63"/>
</g>
<!-- Node14&#45;&gt;Node4 -->
<g id="edge23" class="edge">
<title>Node14&#45;&gt;Node4</title>
<path fill="none" stroke="midnightblue" d="M131.59,-98.71C163.98,-84.18 232.86,-59.72 280,-88.6 327.66,-117.8 347.16,-186.52 354.13,-220.65"/>
<polygon fill="midnightblue" stroke="midnightblue" points="350.75,-221.61 356.03,-230.79 357.63,-220.32 350.75,-221.61"/>
</g>
<!-- Node14&#45;&gt;Node5 -->
<g id="edge24" class="edge">
<title>Node14&#45;&gt;Node5</title>
<path fill="none" stroke="midnightblue" d="M117.4,-97.98C126.24,-77.67 149.93,-30.79 187,-12.6 224.11,5.61 241.42,2.23 280,-12.6 361.6,-43.98 429.97,-128.55 457.04,-165.69"/>
<polygon fill="midnightblue" stroke="midnightblue" points="454.36,-167.95 463.02,-174.05 460.05,-163.88 454.36,-167.95"/>
</g>
<!-- Node14&#45;&gt;Node6 -->
<g id="edge25" class="edge">
<title>Node14&#45;&gt;Node6</title>
<path fill="none" stroke="midnightblue" d="M117.46,-117.38C131.84,-152.76 180.74,-272.41 187,-278.6 188.46,-280.05 190.05,-281.39 191.72,-282.63"/>
<polygon fill="midnightblue" stroke="midnightblue" points="190.32,-285.87 200.68,-288.07 193.95,-279.89 190.32,-285.87"/>
</g>
<!-- Node14&#45;&gt;Node9 -->
<g id="edge26" class="edge">
<title>Node14&#45;&gt;Node9</title>
<path fill="none" stroke="midnightblue" d="M131.57,-113.37C147.85,-118.57 172.34,-126.39 193.12,-133.03"/>
<polygon fill="midnightblue" stroke="midnightblue" points="192.07,-136.37 202.67,-136.07 194.2,-129.7 192.07,-136.37"/>
</g>
<!-- Node14&#45;&gt;Node10 -->
<g id="edge27" class="edge">
<title>Node14&#45;&gt;Node10</title>
<path fill="none" stroke="midnightblue" d="M131.57,-107.6C145.23,-107.6 164.65,-107.6 182.82,-107.6"/>
<polygon fill="midnightblue" stroke="midnightblue" points="183.03,-111.1 193.03,-107.6 183.03,-104.1 183.03,-111.1"/>
</g>
<!-- Node15 -->
<g id="node15" class="node">
<title>Node15</title>
<g id="a_node15"><a xlink:href="../../d2/df6/kohonen__som__topology_8c.html#a5bb02a8322d717ead1b11182c5f02a3a" target="_top" xlink:title=" ">
<polygon fill="white" stroke="black" points="187,-22.1 187,-41.1 280,-41.1 280,-22.1 187,-22.1"/>
<text text-anchor="middle" x="233.5" y="-29.1" font-family="Helvetica,sans-Serif" font-size="10.00">test_3d_classes2</text>
</a>
</g>
</g>
<!-- Node14&#45;&gt;Node15 -->
<g id="edge28" class="edge">
<title>Node14&#45;&gt;Node15</title>
<path fill="none" stroke="midnightblue" d="M125.91,-98.07C140.25,-87.23 164.75,-69.26 187,-55.6 192.27,-52.37 198.01,-49.13 203.59,-46.13"/>
<polygon fill="midnightblue" stroke="midnightblue" points="205.48,-49.08 212.7,-41.33 202.22,-42.89 205.48,-49.08"/>
</g>
<!-- Node15&#45;&gt;Node4 -->
<g id="edge29" class="edge">
<title>Node15&#45;&gt;Node4</title>
<path fill="none" stroke="midnightblue" d="M260.24,-41.31C267.34,-44.94 274.57,-49.67 280,-55.6 325.16,-104.96 346.19,-184.43 353.87,-221.01"/>
<polygon fill="midnightblue" stroke="midnightblue" points="350.45,-221.79 355.84,-230.91 357.32,-220.42 350.45,-221.79"/>
</g>
</g>
</svg>
