<?xml version="1.0" encoding="UTF-8" standalone="no"?>
<!DOCTYPE svg PUBLIC "-//W3C//DTD SVG 1.1//EN"
 "http://www.w3.org/Graphics/SVG/1.1/DTD/svg11.dtd">
<!-- Generated by graphviz version 2.44.0 (20200408.0750)
 -->
<!-- Title: main Pages: 1 -->
<svg width="526pt" height="282pt"
 viewBox="0.00 0.00 526.00 281.75" xmlns="http://www.w3.org/2000/svg" xmlns:xlink="http://www.w3.org/1999/xlink">
<g id="graph0" class="graph" transform="scale(1 1) rotate(0) translate(4 277.75)">
<title>main</title>
<polygon fill="white" stroke="transparent" points="-4,4 -4,-277.75 522,-277.75 522,4 -4,4"/>
<!-- Node1 -->
<g id="node1" class="node">
<title>Node1</title>
<g id="a_node1"><a xlink:title=" ">
<polygon fill="#bfbfbf" stroke="black" points="0,-133.5 0,-152.5 38,-152.5 38,-133.5 0,-133.5"/>
<text text-anchor="middle" x="19" y="-140.5" font-family="Helvetica,sans-Serif" font-size="10.00">main</text>
</a>
</g>
</g>
<!-- Node2 -->
<g id="node2" class="node">
<title>Node2</title>
<g id="a_node2"><a xlink:href="../../d3/d1e/kohonen__som_8c.html#a2256c10b16edba377b64a44b6c656908" target="_top" xlink:title=" ">
<polygon fill="white" stroke="black" points="74,-190.5 74,-209.5 151,-209.5 151,-190.5 74,-190.5"/>
<text text-anchor="middle" x="112.5" y="-197.5" font-family="Helvetica,sans-Serif" font-size="10.00">get_clock_diff</text>
</a>
</g>
</g>
<!-- Node1&#45;&gt;Node2 -->
<g id="edge1" class="edge">
<title>Node1&#45;&gt;Node2</title>
<path fill="none" stroke="midnightblue" d="M32.53,-152.59C43.25,-160.62 59.26,-172.14 74,-181 76.67,-182.6 79.48,-184.2 82.33,-185.74"/>
<polygon fill="midnightblue" stroke="midnightblue" points="80.88,-188.93 91.36,-190.47 84.12,-182.73 80.88,-188.93"/>
</g>
<!-- Node3 -->
<g id="node3" class="node">
<title>Node3</title>
<g id="a_node3"><a xlink:href="../../d3/d1e/kohonen__som_8c.html#a1440a7779ac56f47a3f355ce4a8c7da0" target="_top" xlink:title=" ">
<polygon fill="white" stroke="black" points="93.5,-152.5 93.5,-171.5 131.5,-171.5 131.5,-152.5 93.5,-152.5"/>
<text text-anchor="middle" x="112.5" y="-159.5" font-family="Helvetica,sans-Serif" font-size="10.00">test1</text>
</a>
</g>
</g>
<!-- Node1&#45;&gt;Node3 -->
<g id="edge2" class="edge">
<title>Node1&#45;&gt;Node3</title>
<path fill="none" stroke="midnightblue" d="M38.08,-146.75C50.99,-149.43 68.6,-153.09 83.34,-156.15"/>
<polygon fill="midnightblue" stroke="midnightblue" points="82.96,-159.65 93.46,-158.25 84.38,-152.79 82.96,-159.65"/>
</g>
<!-- Node10 -->
<g id="node10" class="node">
<title>Node10</title>
<g id="a_node10"><a xlink:href="../../d3/d1e/kohonen__som_8c.html#a0283886819c7c140a023582b7269e2d0" target="_top" xlink:title=" ">
<polygon fill="white" stroke="black" points="93.5,-114.5 93.5,-133.5 131.5,-133.5 131.5,-114.5 93.5,-114.5"/>
<text text-anchor="middle" x="112.5" y="-121.5" font-family="Helvetica,sans-Serif" font-size="10.00">test2</text>
</a>
</g>
</g>
<!-- Node1&#45;&gt;Node10 -->
<g id="edge10" class="edge">
<title>Node1&#45;&gt;Node10</title>
<path fill="none" stroke="midnightblue" d="M38.08,-139.25C50.99,-136.57 68.6,-132.91 83.34,-129.85"/>
<polygon fill="midnightblue" stroke="midnightblue" points="84.38,-133.21 93.46,-127.75 82.96,-126.35 84.38,-133.21"/>
</g>
<!-- Node12 -->
<g id="node12" class="node">
<title>Node12</title>
<g id="a_node12"><a xlink:href="../../d3/d1e/kohonen__som_8c.html#a6d0455dd5c30adda100e95f0423c786e" target="_top" xlink:title=" ">
<polygon fill="white" stroke="black" points="93.5,-76.5 93.5,-95.5 131.5,-95.5 131.5,-76.5 93.5,-76.5"/>
<text text-anchor="middle" x="112.5" y="-83.5" font-family="Helvetica,sans-Serif" font-size="10.00">test3</text>
</a>
</g>
</g>
<!-- Node1&#45;&gt;Node12 -->
<g id="edge16" class="edge">
<title>Node1&#45;&gt;Node12</title>
<path fill="none" stroke="midnightblue" d="M32.53,-133.41C43.25,-125.38 59.26,-113.86 74,-105 77.26,-103.04 80.74,-101.1 84.22,-99.24"/>
<polygon fill="midnightblue" stroke="midnightblue" points="86,-102.26 93.28,-94.57 82.79,-96.04 86,-102.26"/>
</g>
<!-- Node4 -->
<g id="node4" class="node">
<title>Node4</title>
<g id="a_node4"><a xlink:href="../../d3/d1e/kohonen__som_8c.html#af5ce14f026d6d231bef29161bac2b485" target="_top" xlink:title=" ">
<polygon fill="white" stroke="black" points="345.5,-171.5 345.5,-190.5 399.5,-190.5 399.5,-171.5 345.5,-171.5"/>
<text text-anchor="middle" x="372.5" y="-178.5" font-family="Helvetica,sans-Serif" font-size="10.00">_random</text>
</a>
</g>
</g>
<!-- Node3&#45;&gt;Node4 -->
<g id="edge3" class="edge">
<title>Node3&#45;&gt;Node4</title>
<path fill="none" stroke="midnightblue" d="M131.86,-168.39C138.52,-171.41 145.7,-175.56 151,-181 177.07,-207.78 155.42,-237.01 187,-257 227.18,-282.43 249.98,-274.98 294,-257 322.63,-245.3 346.41,-217.36 359.79,-198.82"/>
<polygon fill="midnightblue" stroke="midnightblue" points="362.68,-200.79 365.49,-190.58 356.92,-196.81 362.68,-200.79"/>
</g>
<!-- Node5 -->
<g id="node5" class="node">
<title>Node5</title>
<g id="a_node5"><a xlink:href="../../d3/d1e/kohonen__som_8c.html#aeaeffbff2be4d5d15b0d4f10f846abde" target="_top" xlink:title=" ">
<polygon fill="white" stroke="black" points="187,-114.5 187,-133.5 294,-133.5 294,-114.5 187,-114.5"/>
<text text-anchor="middle" x="240.5" y="-121.5" font-family="Helvetica,sans-Serif" font-size="10.00">kohonen_som_tracer</text>
</a>
</g>
</g>
<!-- Node3&#45;&gt;Node5 -->
<g id="edge4" class="edge">
<title>Node3&#45;&gt;Node5</title>
<path fill="none" stroke="midnightblue" d="M131.55,-156.56C148.86,-151.34 175.61,-143.27 198.16,-136.47"/>
<polygon fill="midnightblue" stroke="midnightblue" points="199.28,-139.79 207.84,-133.55 197.26,-133.08 199.28,-139.79"/>
</g>
<!-- Node8 -->
<g id="node8" class="node">
<title>Node8</title>
<g id="a_node8"><a xlink:href="../../d3/d1e/kohonen__som_8c.html#a7b84b14e60f47812b581d1f93057c85a" target="_top" xlink:title=" ">
<polygon fill="white" stroke="black" points="202,-76.5 202,-95.5 279,-95.5 279,-76.5 202,-76.5"/>
<text text-anchor="middle" x="240.5" y="-83.5" font-family="Helvetica,sans-Serif" font-size="10.00">save_nd_data</text>
</a>
</g>
</g>
<!-- Node3&#45;&gt;Node8 -->
<g id="edge7" class="edge">
<title>Node3&#45;&gt;Node8</title>
<path fill="none" stroke="midnightblue" d="M131.79,-154.29C138.15,-151.22 145.15,-147.36 151,-143 169.65,-129.09 167.54,-117.75 187,-105 189.97,-103.06 193.16,-101.28 196.45,-99.66"/>
<polygon fill="midnightblue" stroke="midnightblue" points="198.14,-102.74 205.89,-95.52 195.33,-96.33 198.14,-102.74"/>
</g>
<!-- Node9 -->
<g id="node9" class="node">
<title>Node9</title>
<g id="a_node9"><a xlink:href="../../d3/d1e/kohonen__som_8c.html#a107f00650b8041f77767927073ddddb8" target="_top" xlink:title=" ">
<polygon fill="white" stroke="black" points="209.5,-228.5 209.5,-247.5 271.5,-247.5 271.5,-228.5 209.5,-228.5"/>
<text text-anchor="middle" x="240.5" y="-235.5" font-family="Helvetica,sans-Serif" font-size="10.00">test_circle</text>
</a>
</g>
</g>
<!-- Node3&#45;&gt;Node9 -->
<g id="edge8" class="edge">
<title>Node3&#45;&gt;Node9</title>
<path fill="none" stroke="midnightblue" d="M131.62,-169.94C137.96,-173.04 145,-176.85 151,-181 168.85,-193.35 168.91,-202.01 187,-214 192.54,-217.67 198.73,-221.05 204.86,-224.04"/>
<polygon fill="midnightblue" stroke="midnightblue" points="203.8,-227.41 214.35,-228.41 206.73,-221.05 203.8,-227.41"/>
</g>
<!-- Node6 -->
<g id="node6" class="node">
<title>Node6</title>
<g id="a_node6"><a xlink:href="../../d3/d1e/kohonen__som_8c.html#a9c98203f55242ff7a8f45a6370840e66" target="_top" xlink:title=" ">
<polygon fill="white" stroke="black" points="330,-114.5 330,-133.5 415,-133.5 415,-114.5 330,-114.5"/>
<text text-anchor="middle" x="372.5" y="-121.5" font-family="Helvetica,sans-Serif" font-size="10.00">update_weights</text>
</a>
</g>
</g>
<!-- Node5&#45;&gt;Node6 -->
<g id="edge5" class="edge">
<title>Node5&#45;&gt;Node6</title>
<path fill="none" stroke="midnightblue" d="M294,-124C302.52,-124 311.33,-124 319.83,-124"/>
<polygon fill="midnightblue" stroke="midnightblue" points="319.99,-127.5 329.99,-124 319.99,-120.5 319.99,-127.5"/>
</g>
<!-- Node7 -->
<g id="node7" class="node">
<title>Node7</title>
<g id="a_node7"><a xlink:href="../../d3/d1e/kohonen__som_8c.html#a0a292ebd954c568934b1fd06666d27e6" target="_top" xlink:title=" ">
<polygon fill="white" stroke="black" points="451,-114.5 451,-133.5 518,-133.5 518,-114.5 451,-114.5"/>
<text text-anchor="middle" x="484.5" y="-121.5" font-family="Helvetica,sans-Serif" font-size="10.00">get_min_1d</text>
</a>
</g>
</g>
<!-- Node6&#45;&gt;Node7 -->
<g id="edge6" class="edge">
<title>Node6&#45;&gt;Node7</title>
<path fill="none" stroke="midnightblue" d="M415.09,-124C423.48,-124 432.31,-124 440.74,-124"/>
<polygon fill="midnightblue" stroke="midnightblue" points="440.77,-127.5 450.77,-124 440.77,-120.5 440.77,-127.5"/>
</g>
<!-- Node9&#45;&gt;Node4 -->
<g id="edge9" class="edge">
<title>Node9&#45;&gt;Node4</title>
<path fill="none" stroke="midnightblue" d="M263.26,-228.46C284.35,-219.21 316.56,-205.09 340.36,-194.65"/>
<polygon fill="midnightblue" stroke="midnightblue" points="341.92,-197.79 349.67,-190.57 339.11,-191.38 341.92,-197.79"/>
</g>
<!-- Node10&#45;&gt;Node4 -->
<g id="edge11" class="edge">
<title>Node10&#45;&gt;Node4</title>
<path fill="none" stroke="midnightblue" d="M131.79,-131.71C138.15,-134.78 145.15,-138.64 151,-143 169.65,-156.91 165.63,-171.81 187,-181 235.01,-201.65 296.77,-195.98 335.25,-189.15"/>
<polygon fill="midnightblue" stroke="midnightblue" points="336.28,-192.51 345.45,-187.21 334.97,-185.64 336.28,-192.51"/>
</g>
<!-- Node10&#45;&gt;Node5 -->
<g id="edge12" class="edge">
<title>Node10&#45;&gt;Node5</title>
<path fill="none" stroke="midnightblue" d="M131.55,-124C143.56,-124 160.1,-124 176.63,-124"/>
<polygon fill="midnightblue" stroke="midnightblue" points="176.88,-127.5 186.88,-124 176.88,-120.5 176.88,-127.5"/>
</g>
<!-- Node10&#45;&gt;Node8 -->
<g id="edge13" class="edge">
<title>Node10&#45;&gt;Node8</title>
<path fill="none" stroke="midnightblue" d="M131.55,-118.56C148.86,-113.34 175.61,-105.27 198.16,-98.47"/>
<polygon fill="midnightblue" stroke="midnightblue" points="199.28,-101.79 207.84,-95.55 197.26,-95.08 199.28,-101.79"/>
</g>
<!-- Node11 -->
<g id="node11" class="node">
<title>Node11</title>
<g id="a_node11"><a xlink:href="../../d3/d1e/kohonen__som_8c.html#aa2246f940155472084ee461f3685d614" target="_top" xlink:title=" ">
<polygon fill="white" stroke="black" points="197.5,-152.5 197.5,-171.5 283.5,-171.5 283.5,-152.5 197.5,-152.5"/>
<text text-anchor="middle" x="240.5" y="-159.5" font-family="Helvetica,sans-Serif" font-size="10.00">test_lamniscate</text>
</a>
</g>
</g>
<!-- Node10&#45;&gt;Node11 -->
<g id="edge14" class="edge">
<title>Node10&#45;&gt;Node11</title>
<path fill="none" stroke="midnightblue" d="M131.55,-129.44C148.86,-134.66 175.61,-142.73 198.16,-149.53"/>
<polygon fill="midnightblue" stroke="midnightblue" points="197.26,-152.92 207.84,-152.45 199.28,-146.21 197.26,-152.92"/>
</g>
<!-- Node11&#45;&gt;Node4 -->
<g id="edge15" class="edge">
<title>Node11&#45;&gt;Node4</title>
<path fill="none" stroke="midnightblue" d="M283.71,-168.17C300.37,-170.6 319.32,-173.37 335.34,-175.72"/>
<polygon fill="midnightblue" stroke="midnightblue" points="334.99,-179.2 345.39,-177.18 336.01,-172.28 334.99,-179.2"/>
</g>
<!-- Node12&#45;&gt;Node4 -->
<g id="edge17" class="edge">
<title>Node12&#45;&gt;Node4</title>
<path fill="none" stroke="midnightblue" d="M131.58,-77.21C166.12,-61.79 242.61,-34.48 294,-67 325.58,-86.99 307.8,-112.93 330,-143 335.84,-150.91 343.5,-158.47 350.65,-164.74"/>
<polygon fill="midnightblue" stroke="midnightblue" points="348.75,-167.71 358.66,-171.44 353.24,-162.34 348.75,-167.71"/>
</g>
<!-- Node12&#45;&gt;Node5 -->
<g id="edge18" class="edge">
<title>Node12&#45;&gt;Node5</title>
<path fill="none" stroke="midnightblue" d="M131.55,-91.44C148.86,-96.66 175.61,-104.73 198.16,-111.53"/>
<polygon fill="midnightblue" stroke="midnightblue" points="197.26,-114.92 207.84,-114.45 199.28,-108.21 197.26,-114.92"/>
</g>
<!-- Node12&#45;&gt;Node8 -->
<g id="edge19" class="edge">
<title>Node12&#45;&gt;Node8</title>
<path fill="none" stroke="midnightblue" d="M131.55,-86C147.22,-86 170.64,-86 191.66,-86"/>
<polygon fill="midnightblue" stroke="midnightblue" points="191.74,-89.5 201.74,-86 191.74,-82.5 191.74,-89.5"/>
</g>
<!-- Node13 -->
<g id="node13" class="node">
<title>Node13</title>
<g id="a_node13"><a xlink:href="../../d3/d1e/kohonen__som_8c.html#a41ae16442e3e5b891a58d2e5932a2cd0" target="_top" xlink:title=" ">
<polygon fill="white" stroke="black" points="196.5,-0.5 196.5,-19.5 284.5,-19.5 284.5,-0.5 196.5,-0.5"/>
<text text-anchor="middle" x="240.5" y="-7.5" font-family="Helvetica,sans-Serif" font-size="10.00">test_3d_classes</text>
</a>
</g>
</g>
<!-- Node12&#45;&gt;Node13 -->
<g id="edge20" class="edge">
<title>Node12&#45;&gt;Node13</title>
<path fill="none" stroke="midnightblue" d="M125.52,-76.43C139.7,-65.4 164.24,-47.1 187,-34 193.19,-30.44 199.99,-27 206.6,-23.9"/>
<polygon fill="midnightblue" stroke="midnightblue" points="208.38,-26.93 216.03,-19.61 205.48,-20.56 208.38,-26.93"/>
</g>
<!-- Node13&#45;&gt;Node4 -->
<g id="edge21" class="edge">
<title>Node13&#45;&gt;Node4</title>
<path fill="none" stroke="midnightblue" d="M273.42,-19.58C280.98,-23.1 288.45,-27.8 294,-34 328.04,-72 302.29,-100.16 330,-143 335.26,-151.14 342.68,-158.67 349.79,-164.85"/>
<polygon fill="midnightblue" stroke="midnightblue" points="347.89,-167.82 357.84,-171.44 352.32,-162.4 347.89,-167.82"/>
</g>
</g>
</svg>
