<?xml version="1.0" encoding="UTF-8" standalone="no"?>
<!DOCTYPE svg PUBLIC "-//W3C//DTD SVG 1.1//EN"
 "http://www.w3.org/Graphics/SVG/1.1/DTD/svg11.dtd">
<!-- Generated by graphviz version 2.40.1 (20161225.0304)
 -->
<!-- Title: project_euler/Problem 23 Pages: 1 -->
<svg width="106pt" height="151pt"
 viewBox="0.00 0.00 106.00 151.00" xmlns="http://www.w3.org/2000/svg" xmlns:xlink="http://www.w3.org/1999/xlink">
<g id="graph0" class="graph" transform="scale(1 1) rotate(0) translate(4 147)">
<title>project_euler/Problem 23</title>
<polygon fill="#ffffff" stroke="transparent" points="-4,4 -4,-147 102,-147 102,4 -4,4"/>
<g id="clust1" class="cluster">
<title>clusterdir_b3d331eabd4234f247030c297aaf021c</title>
<g id="a_clust1"><a xlink:href="dir_b3d331eabd4234f247030c297aaf021c.html" target="_top" xlink:title="project_euler">
<polygon fill="#ddddee" stroke="#000000" points="8,-64 8,-135 90,-135 90,-64 8,-64"/>
<text text-anchor="middle" x="49" y="-123" font-family="Helvetica,sans-Serif" font-size="10.00" fill="#000000">project_euler</text>
</a>
</g>
</g>
<!-- dir_33a4ba9d94992cd83de12d8edaa579af -->
<g id="node1" class="node">
<title>dir_33a4ba9d94992cd83de12d8edaa579af</title>
<g id="a_node1"><a xlink:href="dir_33a4ba9d94992cd83de12d8edaa579af.html" target="_top" xlink:title="Problem 23">
<polygon fill="#eeeeff" stroke="#000000" points="82,-108 16,-108 16,-72 82,-72 82,-108"/>
<text text-anchor="middle" x="49" y="-87.5" font-family="Helvetica,sans-Serif" font-size="10.00" fill="#000000">Problem 23</text>
</a>
</g>
</g>
<!-- dir_2e172d3641bac07040b5eade4954345c -->
<g id="node2" class="node">
<title>dir_2e172d3641bac07040b5eade4954345c</title>
<g id="a_node2"><a xlink:href="dir_2e172d3641bac07040b5eade4954345c.html" target="_top" xlink:title="function_timer">
<polygon fill="#ffffff" stroke="#ff0000" points="88,-36 10,-36 10,0 88,0 88,-36"/>
<text text-anchor="middle" x="49" y="-15.5" font-family="Helvetica,sans-Serif" font-size="10.00" fill="#000000">function_timer</text>
</a>
</g>
</g>
<!-- dir_33a4ba9d94992cd83de12d8edaa579af&#45;&gt;dir_2e172d3641bac07040b5eade4954345c -->
<g id="edge1" class="edge">
<title>dir_33a4ba9d94992cd83de12d8edaa579af&#45;&gt;dir_2e172d3641bac07040b5eade4954345c</title>
<path fill="none" stroke="#000000" d="M49,-71.8314C49,-64.131 49,-54.9743 49,-46.4166"/>
<polygon fill="#000000" stroke="#000000" points="52.5001,-46.4132 49,-36.4133 45.5001,-46.4133 52.5001,-46.4132"/>
<g id="a_edge1&#45;headlabel"><a xlink:href="dir_000045_000022.html" target="_top" xlink:title="1">
<text text-anchor="middle" x="55.3393" y="-47.5079" font-family="Helvetica,sans-Serif" font-size="10.00" fill="#000000">1</text>
</a>
</g>
</g>
</g>
</svg>
