<?xml version="1.0" encoding="UTF-8" standalone="no"?>
<!DOCTYPE svg PUBLIC "-//W3C//DTD SVG 1.1//EN"
 "http://www.w3.org/Graphics/SVG/1.1/DTD/svg11.dtd">
<!-- Generated by graphviz version 2.40.1 (20161225.0304)
 -->
<!-- Title: function_timer Pages: 1 -->
<svg width="190pt" height="148pt"
 viewBox="0.00 0.00 190.00 148.00" xmlns="http://www.w3.org/2000/svg" xmlns:xlink="http://www.w3.org/1999/xlink">
<g id="graph0" class="graph" transform="scale(1 1) rotate(0) translate(4 144)">
<title>function_timer</title>
<polygon fill="#ffffff" stroke="transparent" points="-4,4 -4,-144 186,-144 186,4 -4,4"/>
<g id="clust1" class="cluster">
<title>clusterdir_2e172d3641bac07040b5eade4954345c</title>
<g id="a_clust1"><a xlink:href="dir_2e172d3641bac07040b5eade4954345c.html" target="_top">
<polygon fill="#eeeeff" stroke="#000000" points="8,-8 8,-132 174,-132 174,-8 8,-8"/>
</a>
</g>
</g>
<!-- dir_2e172d3641bac07040b5eade4954345c -->
<g id="node1" class="node">
<title>dir_2e172d3641bac07040b5eade4954345c</title>
<text text-anchor="middle" x="127" y="-103.5" font-family="Helvetica,sans-Serif" font-size="10.00" fill="#000000">function_timer</text>
</g>
<!-- dir_d49c1a4179833326cd342b21600d601e -->
<g id="node2" class="node">
<title>dir_d49c1a4179833326cd342b21600d601e</title>
<g id="a_node2"><a xlink:href="dir_d49c1a4179833326cd342b21600d601e.html" target="_top" xlink:title="include">
<polygon fill="#ffffff" stroke="#000000" points="70,-52 16,-52 16,-16 70,-16 70,-52"/>
<text text-anchor="middle" x="43" y="-31.5" font-family="Helvetica,sans-Serif" font-size="10.00" fill="#000000">include</text>
</a>
</g>
</g>
<!-- dir_adfec62f9813d360966f48f83d6207c1 -->
<g id="node3" class="node">
<title>dir_adfec62f9813d360966f48f83d6207c1</title>
<g id="a_node3"><a xlink:href="dir_adfec62f9813d360966f48f83d6207c1.html" target="_top" xlink:title="src">
<polygon fill="#ffffff" stroke="#000000" points="70,-124 16,-124 16,-88 70,-88 70,-124"/>
<text text-anchor="middle" x="43" y="-103.5" font-family="Helvetica,sans-Serif" font-size="10.00" fill="#000000">src</text>
</a>
</g>
</g>
<!-- dir_adfec62f9813d360966f48f83d6207c1&#45;&gt;dir_d49c1a4179833326cd342b21600d601e -->
<g id="edge1" class="edge">
<title>dir_adfec62f9813d360966f48f83d6207c1&#45;&gt;dir_d49c1a4179833326cd342b21600d601e</title>
<path fill="none" stroke="#000000" d="M43,-87.8314C43,-80.131 43,-70.9743 43,-62.4166"/>
<polygon fill="#000000" stroke="#000000" points="46.5001,-62.4132 43,-52.4133 39.5001,-62.4133 46.5001,-62.4132"/>
<g id="a_edge1&#45;headlabel"><a xlink:href="dir_000024_000023.html" target="_top" xlink:title="3">
<text text-anchor="middle" x="49.3393" y="-63.5079" font-family="Helvetica,sans-Serif" font-size="10.00" fill="#000000">3</text>
</a>
</g>
</g>
</g>
</svg>
