<?xml version="1.0" encoding="UTF-8" standalone="no"?>
<!DOCTYPE svg PUBLIC "-//W3C//DTD SVG 1.1//EN"
 "http://www.w3.org/Graphics/SVG/1.1/DTD/svg11.dtd">
<!-- Generated by graphviz version 2.40.1 (20161225.0304)
 -->
<!-- Title: main Pages: 1 -->
<svg width="284pt" height="218pt"
 viewBox="0.00 0.00 284.00 218.00" xmlns="http://www.w3.org/2000/svg" xmlns:xlink="http://www.w3.org/1999/xlink">
<g id="graph0" class="graph" transform="scale(1 1) rotate(0) translate(4 214)">
<title>main</title>
<polygon fill="#ffffff" stroke="transparent" points="-4,4 -4,-214 280,-214 280,4 -4,4"/>
<!-- Node2 -->
<g id="node1" class="node">
<title>Node2</title>
<polygon fill="#bfbfbf" stroke="#000000" points="0,-95.5 0,-114.5 38,-114.5 38,-95.5 0,-95.5"/>
<text text-anchor="middle" x="19" y="-102.5" font-family="Helvetica,sans-Serif" font-size="10.00" fill="#000000">main</text>
</g>
<!-- Node3 -->
<g id="node2" class="node">
<title>Node3</title>
<g id="a_node2"><a xlink:href="durand__kerner__roots_8c.html#afa5b04ce11475d67049cba8273741fb7" target="_top" xlink:title="complex_str">
<polygon fill="#ffffff" stroke="#000000" points="87,-190.5 87,-209.5 157,-209.5 157,-190.5 87,-190.5"/>
<text text-anchor="middle" x="122" y="-197.5" font-family="Helvetica,sans-Serif" font-size="10.00" fill="#000000">complex_str</text>
</a>
</g>
</g>
<!-- Node2&#45;&gt;Node3 -->
<g id="edge1" class="edge">
<title>Node2&#45;&gt;Node3</title>
<path fill="none" stroke="#191970" d="M23.5916,-114.5142C31.689,-130.3732 49.9511,-162.3112 74,-181 76.2889,-182.7787 78.7656,-184.4113 81.3462,-185.9062"/>
<polygon fill="#191970" stroke="#191970" points="79.893,-189.0932 90.3979,-190.4711 83.0451,-182.8431 79.893,-189.0932"/>
</g>
<!-- Node4 -->
<g id="node3" class="node">
<title>Node4</title>
<g id="a_node3"><a xlink:href="function__timer_8h.html#accb7f00d99dee0675cc8355215ffa4ea" target="_top" xlink:title="new_timer">
<polygon fill="#ffffff" stroke="#000000" points="91,-152.5 91,-171.5 153,-171.5 153,-152.5 91,-152.5"/>
<text text-anchor="middle" x="122" y="-159.5" font-family="Helvetica,sans-Serif" font-size="10.00" fill="#000000">new_timer</text>
</a>
</g>
</g>
<!-- Node2&#45;&gt;Node4 -->
<g id="edge2" class="edge">
<title>Node2&#45;&gt;Node4</title>
<path fill="none" stroke="#191970" d="M31.1527,-114.6024C41.9686,-122.8483 58.4409,-134.6859 74,-143 77.6905,-144.972 81.6314,-146.8567 85.6086,-148.6203"/>
<polygon fill="#191970" stroke="#191970" points="84.2785,-151.8578 94.8538,-152.4998 86.987,-145.403 84.2785,-151.8578"/>
</g>
<!-- Node5 -->
<g id="node4" class="node">
<title>Node5</title>
<g id="a_node4"><a xlink:href="function__timer_8h.html#ad22e8b158b90f5a405241a943120479a" target="_top" xlink:title="start_timer">
<polygon fill="#ffffff" stroke="#000000" points="90.5,-114.5 90.5,-133.5 153.5,-133.5 153.5,-114.5 90.5,-114.5"/>
<text text-anchor="middle" x="122" y="-121.5" font-family="Helvetica,sans-Serif" font-size="10.00" fill="#000000">start_timer</text>
</a>
</g>
</g>
<!-- Node2&#45;&gt;Node5 -->
<g id="edge3" class="edge">
<title>Node2&#45;&gt;Node5</title>
<path fill="none" stroke="#191970" d="M38.3735,-108.5738C50.0967,-110.7363 65.5179,-113.581 79.9212,-116.2379"/>
<polygon fill="#191970" stroke="#191970" points="79.6927,-119.7547 90.1617,-118.1269 80.9626,-112.8709 79.6927,-119.7547"/>
</g>
<!-- Node6 -->
<g id="node5" class="node">
<title>Node6</title>
<g id="a_node5"><a xlink:href="durand__kerner__roots_8c.html#a26d5695ebed0818a3e7cf4b10aacab52" target="_top" xlink:title="check_termination">
<polygon fill="#ffffff" stroke="#000000" points="74,-76.5 74,-95.5 170,-95.5 170,-76.5 74,-76.5"/>
<text text-anchor="middle" x="122" y="-83.5" font-family="Helvetica,sans-Serif" font-size="10.00" fill="#000000">check_termination</text>
</a>
</g>
</g>
<!-- Node2&#45;&gt;Node6 -->
<g id="edge4" class="edge">
<title>Node2&#45;&gt;Node6</title>
<path fill="none" stroke="#191970" d="M38.3735,-101.4262C45.7343,-100.0684 54.553,-98.4417 63.6622,-96.7613"/>
<polygon fill="#191970" stroke="#191970" points="64.4063,-100.1832 73.6055,-94.9271 63.1365,-93.2993 64.4063,-100.1832"/>
</g>
<!-- Node7 -->
<g id="node6" class="node">
<title>Node7</title>
<g id="a_node6"><a xlink:href="durand__kerner__roots_8c.html#adf4ae062a028c6faf2b96c9c1eb343af" target="_top" xlink:title="poly_function">
<polygon fill="#ffffff" stroke="#000000" points="85,-38.5 85,-57.5 159,-57.5 159,-38.5 85,-38.5"/>
<text text-anchor="middle" x="122" y="-45.5" font-family="Helvetica,sans-Serif" font-size="10.00" fill="#000000">poly_function</text>
</a>
</g>
</g>
<!-- Node2&#45;&gt;Node7 -->
<g id="edge5" class="edge">
<title>Node2&#45;&gt;Node7</title>
<path fill="none" stroke="#191970" d="M31.1527,-95.3976C41.9686,-87.1517 58.4409,-75.3141 74,-67 77.6905,-65.028 81.6314,-63.1433 85.6086,-61.3797"/>
<polygon fill="#191970" stroke="#191970" points="86.987,-64.597 94.8538,-57.5002 84.2785,-58.1422 86.987,-64.597"/>
</g>
<!-- Node8 -->
<g id="node7" class="node">
<title>Node8</title>
<g id="a_node7"><a xlink:href="function__timer_8h.html#a527744876e07c6dd44defd7c40177afa" target="_top" xlink:title="end_timer_delete">
<polygon fill="#ffffff" stroke="#000000" points="76.5,-.5 76.5,-19.5 167.5,-19.5 167.5,-.5 76.5,-.5"/>
<text text-anchor="middle" x="122" y="-7.5" font-family="Helvetica,sans-Serif" font-size="10.00" fill="#000000">end_timer_delete</text>
</a>
</g>
</g>
<!-- Node2&#45;&gt;Node8 -->
<g id="edge6" class="edge">
<title>Node2&#45;&gt;Node8</title>
<path fill="none" stroke="#191970" d="M23.5916,-95.4858C31.689,-79.6268 49.9511,-47.6888 74,-29 76.2889,-27.2213 78.7656,-25.5887 81.3462,-24.0938"/>
<polygon fill="#191970" stroke="#191970" points="83.0451,-27.1569 90.3979,-19.5289 79.893,-20.9068 83.0451,-27.1569"/>
</g>
<!-- Node9 -->
<g id="node8" class="node">
<title>Node9</title>
<g id="a_node8"><a xlink:href="function__timer_8h.html#a1e245d139d00f5f5246dc4154da7d6b2" target="_top" xlink:title="delete_timer">
<polygon fill="#ffffff" stroke="#000000" points="206,-.5 206,-19.5 276,-19.5 276,-.5 206,-.5"/>
<text text-anchor="middle" x="241" y="-7.5" font-family="Helvetica,sans-Serif" font-size="10.00" fill="#000000">delete_timer</text>
</a>
</g>
</g>
<!-- Node8&#45;&gt;Node9 -->
<g id="edge7" class="edge">
<title>Node8&#45;&gt;Node9</title>
<path fill="none" stroke="#191970" d="M167.6682,-10C176.9068,-10 186.6165,-10 195.8376,-10"/>
<polygon fill="#191970" stroke="#191970" points="195.9899,-13.5001 205.9899,-10 195.9898,-6.5001 195.9899,-13.5001"/>
</g>
</g>
</svg>
