<?xml version="1.0" encoding="UTF-8" standalone="no"?>
<!DOCTYPE svg PUBLIC "-//W3C//DTD SVG 1.1//EN"
 "http://www.w3.org/Graphics/SVG/1.1/DTD/svg11.dtd">
<!-- Generated by graphviz version 2.40.1 (20161225.0304)
 -->
<!-- Title: misc/factorial_large_number.c Pages: 1 -->
<svg width="286pt" height="151pt"
 viewBox="0.00 0.00 286.00 151.00" xmlns="http://www.w3.org/2000/svg" xmlns:xlink="http://www.w3.org/1999/xlink">
<g id="graph0" class="graph" transform="scale(1 1) rotate(0) translate(4 147)">
<title>misc/factorial_large_number.c</title>
<polygon fill="#ffffff" stroke="transparent" points="-4,4 -4,-147 282,-147 282,4 -4,4"/>
<!-- Node0 -->
<g id="node1" class="node">
<title>Node0</title>
<polygon fill="#bfbfbf" stroke="#000000" points="69.5,-112.5 69.5,-142.5 170.5,-142.5 170.5,-112.5 69.5,-112.5"/>
<text text-anchor="start" x="77.5" y="-130.5" font-family="Helvetica,sans-Serif" font-size="10.00" fill="#000000">misc/factorial_large</text>
<text text-anchor="middle" x="120" y="-119.5" font-family="Helvetica,sans-Serif" font-size="10.00" fill="#000000">_number.c</text>
</g>
<!-- Node1 -->
<g id="node2" class="node">
<title>Node1</title>
<polygon fill="#ffffff" stroke="#bfbfbf" points="0,-56.5 0,-75.5 46,-75.5 46,-56.5 0,-56.5"/>
<text text-anchor="middle" x="23" y="-63.5" font-family="Helvetica,sans-Serif" font-size="10.00" fill="#000000">stdio.h</text>
</g>
<!-- Node0&#45;&gt;Node1 -->
<g id="edge1" class="edge">
<title>Node0&#45;&gt;Node1</title>
<path fill="none" stroke="#191970" d="M96.0225,-112.2977C81.0624,-102.8127 61.878,-90.6495 46.9274,-81.1705"/>
<polygon fill="#191970" stroke="#191970" points="48.561,-78.062 38.2413,-75.6633 44.8127,-83.9739 48.561,-78.062"/>
</g>
<!-- Node2 -->
<g id="node3" class="node">
<title>Node2</title>
<polygon fill="#ffffff" stroke="#bfbfbf" points="64,-56.5 64,-75.5 112,-75.5 112,-56.5 64,-56.5"/>
<text text-anchor="middle" x="88" y="-63.5" font-family="Helvetica,sans-Serif" font-size="10.00" fill="#000000">stdlib.h</text>
</g>
<!-- Node0&#45;&gt;Node2 -->
<g id="edge2" class="edge">
<title>Node0&#45;&gt;Node2</title>
<path fill="none" stroke="#191970" d="M112.0899,-112.2977C107.7868,-104.0277 102.4242,-93.7215 97.8518,-84.9339"/>
<polygon fill="#191970" stroke="#191970" points="100.8443,-83.1024 93.1236,-75.8469 94.6346,-86.3335 100.8443,-83.1024"/>
</g>
<!-- Node3 -->
<g id="node4" class="node">
<title>Node3</title>
<polygon fill="#ffffff" stroke="#bfbfbf" points="130,-56.5 130,-75.5 174,-75.5 174,-56.5 130,-56.5"/>
<text text-anchor="middle" x="152" y="-63.5" font-family="Helvetica,sans-Serif" font-size="10.00" fill="#000000">time.h</text>
</g>
<!-- Node0&#45;&gt;Node3 -->
<g id="edge3" class="edge">
<title>Node0&#45;&gt;Node3</title>
<path fill="none" stroke="#191970" d="M127.9101,-112.2977C132.2132,-104.0277 137.5758,-93.7215 142.1482,-84.9339"/>
<polygon fill="#191970" stroke="#191970" points="145.3654,-86.3335 146.8764,-75.8469 139.1557,-83.1024 145.3654,-86.3335"/>
</g>
<!-- Node4 -->
<g id="node5" class="node">
<title>Node4</title>
<g id="a_node5"><a xlink:href="function__timer_8h.html" target="_top" xlink:title="Provides wrappers around C++ high&#45;precesion timer from &quot;std::chrono&quot; to C and C++ as a library...">
<polygon fill="#ffffff" stroke="#000000" points="192,-56.5 192,-75.5 278,-75.5 278,-56.5 192,-56.5"/>
<text text-anchor="middle" x="235" y="-63.5" font-family="Helvetica,sans-Serif" font-size="10.00" fill="#000000">function_timer.h</text>
</a>
</g>
</g>
<!-- Node0&#45;&gt;Node4 -->
<g id="edge4" class="edge">
<title>Node0&#45;&gt;Node4</title>
<path fill="none" stroke="#191970" d="M148.1322,-112.4554C166.4786,-102.644 190.2777,-89.9167 208.3251,-80.2653"/>
<polygon fill="#191970" stroke="#191970" points="210.0114,-83.3326 217.1791,-75.5303 206.7103,-77.1598 210.0114,-83.3326"/>
</g>
<!-- Node5 -->
<g id="node6" class="node">
<title>Node5</title>
<polygon fill="#ffffff" stroke="#bfbfbf" points="209,-.5 209,-19.5 261,-19.5 261,-.5 209,-.5"/>
<text text-anchor="middle" x="235" y="-7.5" font-family="Helvetica,sans-Serif" font-size="10.00" fill="#000000">stdarg.h</text>
</g>
<!-- Node4&#45;&gt;Node5 -->
<g id="edge5" class="edge">
<title>Node4&#45;&gt;Node5</title>
<path fill="none" stroke="#191970" d="M235,-56.2455C235,-48.9382 235,-38.6944 235,-29.7046"/>
<polygon fill="#191970" stroke="#191970" points="238.5001,-29.6426 235,-19.6427 231.5001,-29.6427 238.5001,-29.6426"/>
</g>
</g>
</svg>
