<?xml version="1.0" encoding="UTF-8" standalone="no"?>
<!DOCTYPE svg PUBLIC "-//W3C//DTD SVG 1.1//EN"
 "http://www.w3.org/Graphics/SVG/1.1/DTD/svg11.dtd">
<!-- Generated by graphviz version 2.40.1 (20161225.0304)
 -->
<!-- Title: main Pages: 1 -->
<svg width="395pt" height="218pt"
 viewBox="0.00 0.00 395.00 218.00" xmlns="http://www.w3.org/2000/svg" xmlns:xlink="http://www.w3.org/1999/xlink">
<g id="graph0" class="graph" transform="scale(1 1) rotate(0) translate(4 214)">
<title>main</title>
<polygon fill="#ffffff" stroke="transparent" points="-4,4 -4,-214 391,-214 391,4 -4,4"/>
<!-- Node3 -->
<g id="node1" class="node">
<title>Node3</title>
<polygon fill="#bfbfbf" stroke="#000000" points="0,-95.5 0,-114.5 38,-114.5 38,-95.5 0,-95.5"/>
<text text-anchor="middle" x="19" y="-102.5" font-family="Helvetica,sans-Serif" font-size="10.00" fill="#000000">main</text>
</g>
<!-- Node4 -->
<g id="node2" class="node">
<title>Node4</title>
<g id="a_node2"><a xlink:href="factorial__large__number_8c.html#ad8101f58545bd891ae8b6e11caadd7eb" target="_top" xlink:title="new_number">
<polygon fill="#ffffff" stroke="#000000" points="83.5,-190.5 83.5,-209.5 155.5,-209.5 155.5,-190.5 83.5,-190.5"/>
<text text-anchor="middle" x="119.5" y="-197.5" font-family="Helvetica,sans-Serif" font-size="10.00" fill="#000000">new_number</text>
</a>
</g>
</g>
<!-- Node3&#45;&gt;Node4 -->
<g id="edge1" class="edge">
<title>Node3&#45;&gt;Node4</title>
<path fill="none" stroke="#191970" d="M23.7616,-114.7201C31.9799,-130.5927 50.2542,-162.1888 74,-181 76.0549,-182.6279 78.2694,-184.1382 80.5757,-185.5358"/>
<polygon fill="#191970" stroke="#191970" points="79.304,-188.8214 89.784,-190.3776 82.5619,-182.6257 79.304,-188.8214"/>
</g>
<!-- Node5 -->
<g id="node3" class="node">
<title>Node5</title>
<g id="a_node3"><a xlink:href="function__timer_8h.html#accb7f00d99dee0675cc8355215ffa4ea" target="_top" xlink:title="new_timer">
<polygon fill="#ffffff" stroke="#000000" points="88.5,-152.5 88.5,-171.5 150.5,-171.5 150.5,-152.5 88.5,-152.5"/>
<text text-anchor="middle" x="119.5" y="-159.5" font-family="Helvetica,sans-Serif" font-size="10.00" fill="#000000">new_timer</text>
</a>
</g>
</g>
<!-- Node3&#45;&gt;Node5 -->
<g id="edge2" class="edge">
<title>Node3&#45;&gt;Node5</title>
<path fill="none" stroke="#191970" d="M31.1914,-114.5307C42.0322,-122.7306 58.5192,-134.5411 74,-143 77.4509,-144.8856 81.1284,-146.7063 84.84,-148.4246"/>
<polygon fill="#191970" stroke="#191970" points="83.4641,-151.643 94.0271,-152.4639 86.2815,-145.235 83.4641,-151.643"/>
</g>
<!-- Node6 -->
<g id="node4" class="node">
<title>Node6</title>
<g id="a_node4"><a xlink:href="function__timer_8h.html#ad22e8b158b90f5a405241a943120479a" target="_top" xlink:title="start_timer">
<polygon fill="#ffffff" stroke="#000000" points="88,-114.5 88,-133.5 151,-133.5 151,-114.5 88,-114.5"/>
<text text-anchor="middle" x="119.5" y="-121.5" font-family="Helvetica,sans-Serif" font-size="10.00" fill="#000000">start_timer</text>
</a>
</g>
</g>
<!-- Node3&#45;&gt;Node6 -->
<g id="edge3" class="edge">
<title>Node3&#45;&gt;Node6</title>
<path fill="none" stroke="#191970" d="M38.3774,-108.6634C49.5589,-110.7773 64.0701,-113.5207 77.7222,-116.1017"/>
<polygon fill="#191970" stroke="#191970" points="77.4491,-119.612 87.9253,-118.0306 78.7495,-112.7338 77.4491,-119.612"/>
</g>
<!-- Node7 -->
<g id="node5" class="node">
<title>Node7</title>
<g id="a_node5"><a xlink:href="factorial__large__number_8c.html#ad398ddbd594ca69a5e6dfc894925341e" target="_top" xlink:title="multiply">
<polygon fill="#ffffff" stroke="#000000" points="94.5,-76.5 94.5,-95.5 144.5,-95.5 144.5,-76.5 94.5,-76.5"/>
<text text-anchor="middle" x="119.5" y="-83.5" font-family="Helvetica,sans-Serif" font-size="10.00" fill="#000000">multiply</text>
</a>
</g>
</g>
<!-- Node3&#45;&gt;Node7 -->
<g id="edge4" class="edge">
<title>Node3&#45;&gt;Node7</title>
<path fill="none" stroke="#191970" d="M38.3774,-101.3366C51.3539,-98.8834 68.8149,-95.5823 84.2132,-92.6711"/>
<polygon fill="#191970" stroke="#191970" points="85.2878,-96.0301 94.4635,-90.7333 83.9874,-89.1519 85.2878,-96.0301"/>
</g>
<!-- Node9 -->
<g id="node7" class="node">
<title>Node9</title>
<g id="a_node7"><a xlink:href="factorial__large__number_8c.html#ab5c854e0df76165c31899e69eceeeaae" target="_top" xlink:title="delete_number">
<polygon fill="#ffffff" stroke="#000000" points="307,-57.5 307,-76.5 387,-76.5 387,-57.5 307,-57.5"/>
<text text-anchor="middle" x="347" y="-64.5" font-family="Helvetica,sans-Serif" font-size="10.00" fill="#000000">delete_number</text>
</a>
</g>
</g>
<!-- Node3&#45;&gt;Node9 -->
<g id="edge9" class="edge">
<title>Node3&#45;&gt;Node9</title>
<path fill="none" stroke="#191970" d="M28.9235,-95.3089C39.22,-85.9901 56.2724,-72.5285 74,-67 148.7551,-43.6871 240.7276,-50.4655 296.5576,-58.2047"/>
<polygon fill="#191970" stroke="#191970" points="296.1505,-61.6822 306.5494,-59.654 297.1553,-54.7547 296.1505,-61.6822"/>
</g>
<!-- Node10 -->
<g id="node8" class="node">
<title>Node10</title>
<g id="a_node8"><a xlink:href="function__timer_8h.html#a527744876e07c6dd44defd7c40177afa" target="_top" xlink:title="end_timer_delete">
<polygon fill="#ffffff" stroke="#000000" points="74,-.5 74,-19.5 165,-19.5 165,-.5 74,-.5"/>
<text text-anchor="middle" x="119.5" y="-7.5" font-family="Helvetica,sans-Serif" font-size="10.00" fill="#000000">end_timer_delete</text>
</a>
</g>
</g>
<!-- Node3&#45;&gt;Node10 -->
<g id="edge7" class="edge">
<title>Node3&#45;&gt;Node10</title>
<path fill="none" stroke="#191970" d="M24.6827,-95.2068C33.638,-80.4364 52.2689,-52.2498 74,-34 78.0842,-30.5701 82.7389,-27.4344 87.4757,-24.6422"/>
<polygon fill="#191970" stroke="#191970" points="89.4406,-27.558 96.5575,-19.7094 86.0995,-21.4068 89.4406,-27.558"/>
</g>
<!-- Node8 -->
<g id="node6" class="node">
<title>Node8</title>
<g id="a_node6"><a xlink:href="factorial__large__number_8c.html#af2869d36c22a2b8f93d3166a84e124b3" target="_top" xlink:title="add_digit">
<polygon fill="#ffffff" stroke="#000000" points="208,-76.5 208,-95.5 264,-95.5 264,-76.5 208,-76.5"/>
<text text-anchor="middle" x="236" y="-83.5" font-family="Helvetica,sans-Serif" font-size="10.00" fill="#000000">add_digit</text>
</a>
</g>
</g>
<!-- Node7&#45;&gt;Node8 -->
<g id="edge5" class="edge">
<title>Node7&#45;&gt;Node8</title>
<path fill="none" stroke="#191970" d="M144.7788,-86C160.1852,-86 180.1801,-86 197.522,-86"/>
<polygon fill="#191970" stroke="#191970" points="197.9123,-89.5001 207.9123,-86 197.9123,-82.5001 197.9123,-89.5001"/>
</g>
<!-- Node8&#45;&gt;Node9 -->
<g id="edge6" class="edge">
<title>Node8&#45;&gt;Node9</title>
<path fill="none" stroke="#191970" d="M264.01,-81.2055C273.9427,-79.5053 285.4469,-77.5361 296.6671,-75.6155"/>
<polygon fill="#191970" stroke="#191970" points="297.5721,-79.0116 306.8382,-73.8745 296.391,-72.112 297.5721,-79.0116"/>
</g>
<!-- Node11 -->
<g id="node9" class="node">
<title>Node11</title>
<g id="a_node9"><a xlink:href="function__timer_8h.html#a1e245d139d00f5f5246dc4154da7d6b2" target="_top" xlink:title="delete_timer">
<polygon fill="#ffffff" stroke="#000000" points="201,-.5 201,-19.5 271,-19.5 271,-.5 201,-.5"/>
<text text-anchor="middle" x="236" y="-7.5" font-family="Helvetica,sans-Serif" font-size="10.00" fill="#000000">delete_timer</text>
</a>
</g>
</g>
<!-- Node10&#45;&gt;Node11 -->
<g id="edge8" class="edge">
<title>Node10&#45;&gt;Node11</title>
<path fill="none" stroke="#191970" d="M165.2095,-10C173.639,-10 182.4363,-10 190.8491,-10"/>
<polygon fill="#191970" stroke="#191970" points="190.8697,-13.5001 200.8696,-10 190.8696,-6.5001 190.8697,-13.5001"/>
</g>
</g>
</svg>
