<?xml version="1.0" encoding="UTF-8" standalone="no"?>
<!DOCTYPE svg PUBLIC "-//W3C//DTD SVG 1.1//EN"
 "http://www.w3.org/Graphics/SVG/1.1/DTD/svg11.dtd">
<!-- Generated by graphviz version 2.40.1 (20161225.0304)
 -->
<!-- Title: misc/Fibonacci_fast.c Pages: 1 -->
<svg width="188pt" height="84pt"
 viewBox="0.00 0.00 188.00 84.00" xmlns="http://www.w3.org/2000/svg" xmlns:xlink="http://www.w3.org/1999/xlink">
<g id="graph0" class="graph" transform="scale(1 1) rotate(0) translate(4 80)">
<title>misc/Fibonacci_fast.c</title>
<polygon fill="#ffffff" stroke="transparent" points="-4,4 -4,-80 184,-80 184,4 -4,4"/>
<!-- Node0 -->
<g id="node1" class="node">
<title>Node0</title>
<polygon fill="#bfbfbf" stroke="#000000" points="31.5,-56.5 31.5,-75.5 144.5,-75.5 144.5,-56.5 31.5,-56.5"/>
<text text-anchor="middle" x="88" y="-63.5" font-family="Helvetica,sans-Serif" font-size="10.00" fill="#000000">misc/Fibonacci_fast.c</text>
</g>
<!-- Node1 -->
<g id="node2" class="node">
<title>Node1</title>
<polygon fill="#ffffff" stroke="#bfbfbf" points="0,-.5 0,-19.5 46,-19.5 46,-.5 0,-.5"/>
<text text-anchor="middle" x="23" y="-7.5" font-family="Helvetica,sans-Serif" font-size="10.00" fill="#000000">stdio.h</text>
</g>
<!-- Node0&#45;&gt;Node1 -->
<g id="edge1" class="edge">
<title>Node0&#45;&gt;Node1</title>
<path fill="none" stroke="#191970" d="M76.6779,-56.2455C67.0777,-47.9746 53.1108,-35.9416 41.8305,-26.2232"/>
<polygon fill="#191970" stroke="#191970" points="44.053,-23.5182 34.1924,-19.6427 39.484,-28.8214 44.053,-23.5182"/>
</g>
<!-- Node2 -->
<g id="node3" class="node">
<title>Node2</title>
<polygon fill="#ffffff" stroke="#bfbfbf" points="64,-.5 64,-19.5 112,-19.5 112,-.5 64,-.5"/>
<text text-anchor="middle" x="88" y="-7.5" font-family="Helvetica,sans-Serif" font-size="10.00" fill="#000000">stdlib.h</text>
</g>
<!-- Node0&#45;&gt;Node2 -->
<g id="edge2" class="edge">
<title>Node0&#45;&gt;Node2</title>
<path fill="none" stroke="#191970" d="M88,-56.2455C88,-48.9382 88,-38.6944 88,-29.7046"/>
<polygon fill="#191970" stroke="#191970" points="91.5001,-29.6426 88,-19.6427 84.5001,-29.6427 91.5001,-29.6426"/>
</g>
<!-- Node3 -->
<g id="node4" class="node">
<title>Node3</title>
<polygon fill="#ffffff" stroke="#bfbfbf" points="130,-.5 130,-19.5 180,-19.5 180,-.5 130,-.5"/>
<text text-anchor="middle" x="155" y="-7.5" font-family="Helvetica,sans-Serif" font-size="10.00" fill="#000000">locale.h</text>
</g>
<!-- Node0&#45;&gt;Node3 -->
<g id="edge3" class="edge">
<title>Node0&#45;&gt;Node3</title>
<path fill="none" stroke="#191970" d="M99.6705,-56.2455C109.5661,-47.9746 123.9627,-35.9416 135.5901,-26.2232"/>
<polygon fill="#191970" stroke="#191970" points="138.035,-28.7413 143.4632,-19.6427 133.5458,-23.3703 138.035,-28.7413"/>
</g>
</g>
</svg>
