<?xml version="1.0" encoding="UTF-8" standalone="no"?>
<!DOCTYPE svg PUBLIC "-//W3C//DTD SVG 1.1//EN"
 "http://www.w3.org/Graphics/SVG/1.1/DTD/svg11.dtd">
<!-- Generated by graphviz version 2.40.1 (20161225.0304)
 -->
<!-- Title: function_timer/include/function_timer.h Pages: 1 -->
<svg width="524pt" height="106pt"
 viewBox="0.00 0.00 524.00 106.00" xmlns="http://www.w3.org/2000/svg" xmlns:xlink="http://www.w3.org/1999/xlink">
<g id="graph0" class="graph" transform="scale(1 1) rotate(0) translate(4 102)">
<title>function_timer/include/function_timer.h</title>
<polygon fill="#ffffff" stroke="transparent" points="-4,4 -4,-102 520,-102 520,4 -4,4"/>
<!-- Node2 -->
<g id="node1" class="node">
<title>Node2</title>
<polygon fill="#bfbfbf" stroke="#000000" points="201.5,-67.5 201.5,-97.5 313.5,-97.5 313.5,-67.5 201.5,-67.5"/>
<text text-anchor="start" x="209.5" y="-85.5" font-family="Helvetica,sans-Serif" font-size="10.00" fill="#000000">function_timer/include</text>
<text text-anchor="middle" x="257.5" y="-74.5" font-family="Helvetica,sans-Serif" font-size="10.00" fill="#000000">/function_timer.h</text>
</g>
<!-- Node3 -->
<g id="node2" class="node">
<title>Node3</title>
<g id="a_node2"><a xlink:href="factorial__large__number_8c.html" target="_top" xlink:title="misc/factorial_large\l_number.c">
<polygon fill="#ffffff" stroke="#000000" points="0,-.5 0,-30.5 101,-30.5 101,-.5 0,-.5"/>
<text text-anchor="start" x="8" y="-18.5" font-family="Helvetica,sans-Serif" font-size="10.00" fill="#000000">misc/factorial_large</text>
<text text-anchor="middle" x="50.5" y="-7.5" font-family="Helvetica,sans-Serif" font-size="10.00" fill="#000000">_number.c</text>
</a>
</g>
</g>
<!-- Node2&#45;&gt;Node3 -->
<g id="edge1" class="edge">
<title>Node2&#45;&gt;Node3</title>
<path fill="none" stroke="#191970" d="M201.1957,-64.2759C168.5719,-53.7165 127.9875,-40.5805 97.1575,-30.6017"/>
<polygon fill="#191970" stroke="#191970" points="200.4533,-67.7143 211.0452,-67.4639 202.6089,-61.0545 200.4533,-67.7143"/>
</g>
<!-- Node4 -->
<g id="node3" class="node">
<title>Node4</title>
<g id="a_node3"><a xlink:href="durand__kerner__roots_8c.html" target="_top" xlink:title="numerical_methods/durand\l_kerner_roots.c">
<polygon fill="#ffffff" stroke="#000000" points="119.5,-.5 119.5,-30.5 253.5,-30.5 253.5,-.5 119.5,-.5"/>
<text text-anchor="start" x="127.5" y="-18.5" font-family="Helvetica,sans-Serif" font-size="10.00" fill="#000000">numerical_methods/durand</text>
<text text-anchor="middle" x="186.5" y="-7.5" font-family="Helvetica,sans-Serif" font-size="10.00" fill="#000000">_kerner_roots.c</text>
</a>
</g>
</g>
<!-- Node2&#45;&gt;Node4 -->
<g id="edge2" class="edge">
<title>Node2&#45;&gt;Node4</title>
<path fill="none" stroke="#191970" d="M233.8806,-60.2113C223.5905,-50.5009 211.7949,-39.3698 202.5472,-30.6432"/>
<polygon fill="#191970" stroke="#191970" points="231.7139,-62.979 241.389,-67.2967 236.5181,-57.8879 231.7139,-62.979"/>
</g>
<!-- Node5 -->
<g id="node4" class="node">
<title>Node5</title>
<g id="a_node4"><a xlink:href="qr__decomposition_8c.html" target="_top" xlink:title="numerical_methods/qr\l_decomposition.c">
<polygon fill="#ffffff" stroke="#000000" points="272,-.5 272,-30.5 385,-30.5 385,-.5 272,-.5"/>
<text text-anchor="start" x="280" y="-18.5" font-family="Helvetica,sans-Serif" font-size="10.00" fill="#000000">numerical_methods/qr</text>
<text text-anchor="middle" x="328.5" y="-7.5" font-family="Helvetica,sans-Serif" font-size="10.00" fill="#000000">_decomposition.c</text>
</a>
</g>
</g>
<!-- Node2&#45;&gt;Node5 -->
<g id="edge3" class="edge">
<title>Node2&#45;&gt;Node5</title>
<path fill="none" stroke="#191970" d="M281.1194,-60.2113C291.4095,-50.5009 303.2051,-39.3698 312.4528,-30.6432"/>
<polygon fill="#191970" stroke="#191970" points="278.4819,-57.8879 273.611,-67.2967 283.2861,-62.979 278.4819,-57.8879"/>
</g>
<!-- Node6 -->
<g id="node5" class="node">
<title>Node6</title>
<g id="a_node5"><a xlink:href="qr__eigen__values_8c.html" target="_top" xlink:title="numerical_methods/qr\l_eigen_values.c">
<polygon fill="#ffffff" stroke="#000000" points="403,-.5 403,-30.5 516,-30.5 516,-.5 403,-.5"/>
<text text-anchor="start" x="411" y="-18.5" font-family="Helvetica,sans-Serif" font-size="10.00" fill="#000000">numerical_methods/qr</text>
<text text-anchor="middle" x="459.5" y="-7.5" font-family="Helvetica,sans-Serif" font-size="10.00" fill="#000000">_eigen_values.c</text>
</a>
</g>
</g>
<!-- Node2&#45;&gt;Node6 -->
<g id="edge4" class="edge">
<title>Node2&#45;&gt;Node6</title>
<path fill="none" stroke="#191970" d="M312.4443,-64.2759C344.28,-53.7165 383.8842,-40.5805 413.9695,-30.6017"/>
<polygon fill="#191970" stroke="#191970" points="311.2224,-60.9936 302.8327,-67.4639 313.4262,-67.6377 311.2224,-60.9936"/>
</g>
</g>
</svg>
