<?xml version="1.0" encoding="UTF-8" standalone="no"?>
<!DOCTYPE svg PUBLIC "-//W3C//DTD SVG 1.1//EN"
 "http://www.w3.org/Graphics/SVG/1.1/DTD/svg11.dtd">
<!-- Generated by graphviz version 2.40.1 (20161225.0304)
 -->
<!-- Title: numerical_methods/newton&#45;raphson&#45;root.c Pages: 1 -->
<svg width="394pt" height="95pt"
 viewBox="0.00 0.00 394.00 95.00" xmlns="http://www.w3.org/2000/svg" xmlns:xlink="http://www.w3.org/1999/xlink">
<g id="graph0" class="graph" transform="scale(1 1) rotate(0) translate(4 91)">
<title>numerical_methods/newton&#45;raphson&#45;root.c</title>
<polygon fill="#ffffff" stroke="transparent" points="-4,4 -4,-91 390,-91 390,4 -4,4"/>
<!-- Node0 -->
<g id="node1" class="node">
<title>Node0</title>
<polygon fill="#bfbfbf" stroke="#000000" points="118,-56.5 118,-86.5 254,-86.5 254,-56.5 118,-56.5"/>
<text text-anchor="start" x="126" y="-74.5" font-family="Helvetica,sans-Serif" font-size="10.00" fill="#000000">numerical_methods/newton</text>
<text text-anchor="middle" x="186" y="-63.5" font-family="Helvetica,sans-Serif" font-size="10.00" fill="#000000">&#45;raphson&#45;root.c</text>
</g>
<!-- Node1 -->
<g id="node2" class="node">
<title>Node1</title>
<polygon fill="#ffffff" stroke="#bfbfbf" points="0,-.5 0,-19.5 46,-19.5 46,-.5 0,-.5"/>
<text text-anchor="middle" x="23" y="-7.5" font-family="Helvetica,sans-Serif" font-size="10.00" fill="#000000">stdio.h</text>
</g>
<!-- Node0&#45;&gt;Node1 -->
<g id="edge1" class="edge">
<title>Node0&#45;&gt;Node1</title>
<path fill="none" stroke="#191970" d="M146.1257,-56.4554C118.3794,-45.9867 81.8345,-32.1983 55.7821,-22.3687"/>
<polygon fill="#191970" stroke="#191970" points="56.943,-19.0659 46.3512,-18.8104 54.4719,-25.6153 56.943,-19.0659"/>
</g>
<!-- Node2 -->
<g id="node3" class="node">
<title>Node2</title>
<polygon fill="#ffffff" stroke="#bfbfbf" points="64.5,-.5 64.5,-19.5 111.5,-19.5 111.5,-.5 64.5,-.5"/>
<text text-anchor="middle" x="88" y="-7.5" font-family="Helvetica,sans-Serif" font-size="10.00" fill="#000000">math.h</text>
</g>
<!-- Node0&#45;&gt;Node2 -->
<g id="edge2" class="edge">
<title>Node0&#45;&gt;Node2</title>
<path fill="none" stroke="#191970" d="M162.0265,-56.4554C146.8224,-46.9141 127.2241,-34.6151 112.0125,-25.0691"/>
<polygon fill="#191970" stroke="#191970" points="113.5172,-21.8813 103.1865,-19.5303 109.7963,-27.8105 113.5172,-21.8813"/>
</g>
<!-- Node3 -->
<g id="node4" class="node">
<title>Node3</title>
<polygon fill="#ffffff" stroke="#bfbfbf" points="130,-.5 130,-19.5 178,-19.5 178,-.5 130,-.5"/>
<text text-anchor="middle" x="154" y="-7.5" font-family="Helvetica,sans-Serif" font-size="10.00" fill="#000000">stdlib.h</text>
</g>
<!-- Node0&#45;&gt;Node3 -->
<g id="edge3" class="edge">
<title>Node0&#45;&gt;Node3</title>
<path fill="none" stroke="#191970" d="M178.0899,-56.2977C173.7868,-48.0277 168.4242,-37.7215 163.8518,-28.9339"/>
<polygon fill="#191970" stroke="#191970" points="166.8443,-27.1024 159.1236,-19.8469 160.6346,-30.3335 166.8443,-27.1024"/>
</g>
<!-- Node4 -->
<g id="node5" class="node">
<title>Node4</title>
<polygon fill="#ffffff" stroke="#bfbfbf" points="196,-.5 196,-19.5 240,-19.5 240,-.5 196,-.5"/>
<text text-anchor="middle" x="218" y="-7.5" font-family="Helvetica,sans-Serif" font-size="10.00" fill="#000000">time.h</text>
</g>
<!-- Node0&#45;&gt;Node4 -->
<g id="edge4" class="edge">
<title>Node0&#45;&gt;Node4</title>
<path fill="none" stroke="#191970" d="M193.9101,-56.2977C198.2132,-48.0277 203.5758,-37.7215 208.1482,-28.9339"/>
<polygon fill="#191970" stroke="#191970" points="211.3654,-30.3335 212.8764,-19.8469 205.1557,-27.1024 211.3654,-30.3335"/>
</g>
<!-- Node5 -->
<g id="node6" class="node">
<title>Node5</title>
<polygon fill="#ffffff" stroke="#bfbfbf" points="258,-.5 258,-19.5 306,-19.5 306,-.5 258,-.5"/>
<text text-anchor="middle" x="282" y="-7.5" font-family="Helvetica,sans-Serif" font-size="10.00" fill="#000000">limits.h</text>
</g>
<!-- Node0&#45;&gt;Node5 -->
<g id="edge5" class="edge">
<title>Node0&#45;&gt;Node5</title>
<path fill="none" stroke="#191970" d="M209.7303,-56.2977C224.5362,-46.8127 243.5228,-34.6495 258.3193,-25.1705"/>
<polygon fill="#191970" stroke="#191970" points="260.3835,-28.0047 266.9159,-19.6633 256.6075,-22.1105 260.3835,-28.0047"/>
</g>
<!-- Node6 -->
<g id="node7" class="node">
<title>Node6</title>
<polygon fill="#ffffff" stroke="#bfbfbf" points="324,-.5 324,-19.5 386,-19.5 386,-.5 324,-.5"/>
<text text-anchor="middle" x="355" y="-7.5" font-family="Helvetica,sans-Serif" font-size="10.00" fill="#000000">complex.h</text>
</g>
<!-- Node0&#45;&gt;Node6 -->
<g id="edge6" class="edge">
<title>Node0&#45;&gt;Node6</title>
<path fill="none" stroke="#191970" d="M227.3421,-56.4554C255.5401,-46.194 292.5031,-32.7429 319.3943,-22.9571"/>
<polygon fill="#191970" stroke="#191970" points="320.6108,-26.239 328.811,-19.5303 318.217,-19.6611 320.6108,-26.239"/>
</g>
</g>
</svg>
