<?xml version="1.0" encoding="UTF-8" standalone="no"?>
<!DOCTYPE svg PUBLIC "-//W3C//DTD SVG 1.1//EN"
 "http://www.w3.org/Graphics/SVG/1.1/DTD/svg11.dtd">
<!-- Generated by graphviz version 2.40.1 (20161225.0304)
 -->
<!-- Title: numerical_methods/qr_eigen_values.c Pages: 1 -->
<svg width="376pt" height="151pt"
 viewBox="0.00 0.00 376.00 151.00" xmlns="http://www.w3.org/2000/svg" xmlns:xlink="http://www.w3.org/1999/xlink">
<g id="graph0" class="graph" transform="scale(1 1) rotate(0) translate(4 147)">
<title>numerical_methods/qr_eigen_values.c</title>
<polygon fill="#ffffff" stroke="transparent" points="-4,4 -4,-147 372,-147 372,4 -4,4"/>
<!-- Node0 -->
<g id="node1" class="node">
<title>Node0</title>
<polygon fill="#bfbfbf" stroke="#000000" points="116.5,-112.5 116.5,-142.5 229.5,-142.5 229.5,-112.5 116.5,-112.5"/>
<text text-anchor="start" x="124.5" y="-130.5" font-family="Helvetica,sans-Serif" font-size="10.00" fill="#000000">numerical_methods/qr</text>
<text text-anchor="middle" x="173" y="-119.5" font-family="Helvetica,sans-Serif" font-size="10.00" fill="#000000">_eigen_values.c</text>
</g>
<!-- Node1 -->
<g id="node2" class="node">
<title>Node1</title>
<polygon fill="#ffffff" stroke="#bfbfbf" points="0,-.5 0,-19.5 46,-19.5 46,-.5 0,-.5"/>
<text text-anchor="middle" x="23" y="-7.5" font-family="Helvetica,sans-Serif" font-size="10.00" fill="#000000">stdio.h</text>
</g>
<!-- Node0&#45;&gt;Node1 -->
<g id="edge1" class="edge">
<title>Node0&#45;&gt;Node1</title>
<path fill="none" stroke="#191970" d="M116.4347,-114.4073C80.3235,-104.8161 38.247,-90.9149 27,-76 17.1835,-62.9821 17.0283,-44.0934 18.8357,-29.8554"/>
<polygon fill="#191970" stroke="#191970" points="22.3476,-30.0775 20.5589,-19.6348 15.445,-28.9137 22.3476,-30.0775"/>
</g>
<!-- Node2 -->
<g id="node3" class="node">
<title>Node2</title>
<polygon fill="#ffffff" stroke="#bfbfbf" points="68.5,-.5 68.5,-19.5 115.5,-19.5 115.5,-.5 68.5,-.5"/>
<text text-anchor="middle" x="92" y="-7.5" font-family="Helvetica,sans-Serif" font-size="10.00" fill="#000000">math.h</text>
</g>
<!-- Node0&#45;&gt;Node2 -->
<g id="edge2" class="edge">
<title>Node0&#45;&gt;Node2</title>
<path fill="none" stroke="#191970" d="M166.0691,-112.3663C158.9391,-97.4513 147.0567,-74.3022 134,-56 126.6705,-45.726 117.2953,-35.2596 109.2626,-26.9113"/>
<polygon fill="#191970" stroke="#191970" points="111.5972,-24.294 102.0833,-19.6317 106.6132,-29.2093 111.5972,-24.294"/>
</g>
<!-- Node3 -->
<g id="node4" class="node">
<title>Node3</title>
<polygon fill="#ffffff" stroke="#bfbfbf" points="146,-.5 146,-19.5 194,-19.5 194,-.5 146,-.5"/>
<text text-anchor="middle" x="170" y="-7.5" font-family="Helvetica,sans-Serif" font-size="10.00" fill="#000000">stdlib.h</text>
</g>
<!-- Node0&#45;&gt;Node3 -->
<g id="edge3" class="edge">
<title>Node0&#45;&gt;Node3</title>
<path fill="none" stroke="#191970" d="M172.6078,-112.1389C172.0673,-90.9692 171.0932,-52.8174 170.5007,-29.6112"/>
<polygon fill="#191970" stroke="#191970" points="173.9983,-29.4669 170.2441,-19.5595 167.0005,-29.6456 173.9983,-29.4669"/>
</g>
<!-- Node4 -->
<g id="node5" class="node">
<title>Node4</title>
<polygon fill="#ffffff" stroke="#bfbfbf" points="220,-56.5 220,-75.5 264,-75.5 264,-56.5 220,-56.5"/>
<text text-anchor="middle" x="242" y="-63.5" font-family="Helvetica,sans-Serif" font-size="10.00" fill="#000000">time.h</text>
</g>
<!-- Node0&#45;&gt;Node4 -->
<g id="edge4" class="edge">
<title>Node0&#45;&gt;Node4</title>
<path fill="none" stroke="#191970" d="M190.0562,-112.2977C200.1329,-103.3163 212.904,-91.9334 223.2611,-82.702"/>
<polygon fill="#191970" stroke="#191970" points="225.8159,-85.1135 230.9522,-75.8469 221.1583,-79.8879 225.8159,-85.1135"/>
</g>
<!-- Node5 -->
<g id="node6" class="node">
<title>Node5</title>
<g id="a_node6"><a xlink:href="qr__decompose_8h.html" target="_top" xlink:title="qr_decompose.h">
<polygon fill="#ffffff" stroke="#000000" points="36.5,-56.5 36.5,-75.5 125.5,-75.5 125.5,-56.5 36.5,-56.5"/>
<text text-anchor="middle" x="81" y="-63.5" font-family="Helvetica,sans-Serif" font-size="10.00" fill="#000000">qr_decompose.h</text>
</a>
</g>
</g>
<!-- Node0&#45;&gt;Node5 -->
<g id="edge5" class="edge">
<title>Node0&#45;&gt;Node5</title>
<path fill="none" stroke="#191970" d="M150.2584,-112.2977C136.2033,-102.9022 118.217,-90.8787 104.0964,-81.4395"/>
<polygon fill="#191970" stroke="#191970" points="105.7143,-78.311 95.4556,-75.6633 101.8241,-84.1305 105.7143,-78.311"/>
</g>
<!-- Node6 -->
<g id="node7" class="node">
<title>Node6</title>
<g id="a_node7"><a xlink:href="function__timer_8h.html" target="_top" xlink:title="Provides wrappers around C++ high&#45;precesion timer from &quot;std::chrono&quot; to C and C++ as a library...">
<polygon fill="#ffffff" stroke="#000000" points="282,-56.5 282,-75.5 368,-75.5 368,-56.5 282,-56.5"/>
<text text-anchor="middle" x="325" y="-63.5" font-family="Helvetica,sans-Serif" font-size="10.00" fill="#000000">function_timer.h</text>
</a>
</g>
</g>
<!-- Node0&#45;&gt;Node6 -->
<g id="edge9" class="edge">
<title>Node0&#45;&gt;Node6</title>
<path fill="none" stroke="#191970" d="M210.1834,-112.4554C235.2113,-102.329 267.9163,-89.0964 292.0166,-79.3453"/>
<polygon fill="#191970" stroke="#191970" points="293.4882,-82.5256 301.4454,-75.5303 290.8627,-76.0366 293.4882,-82.5256"/>
</g>
<!-- Node5&#45;&gt;Node1 -->
<g id="edge7" class="edge">
<title>Node5&#45;&gt;Node1</title>
<path fill="none" stroke="#191970" d="M70.8972,-56.2455C62.4972,-48.1352 50.3506,-36.4075 40.3916,-26.7919"/>
<polygon fill="#191970" stroke="#191970" points="42.6122,-24.0707 32.9871,-19.6427 37.75,-29.1066 42.6122,-24.0707"/>
</g>
<!-- Node5&#45;&gt;Node2 -->
<g id="edge6" class="edge">
<title>Node5&#45;&gt;Node2</title>
<path fill="none" stroke="#191970" d="M82.9161,-56.2455C84.3514,-48.9382 86.3636,-38.6944 88.1295,-29.7046"/>
<polygon fill="#191970" stroke="#191970" points="91.6127,-30.1298 90.1059,-19.6427 84.744,-28.7805 91.6127,-30.1298"/>
</g>
<!-- Node5&#45;&gt;Node3 -->
<g id="edge8" class="edge">
<title>Node5&#45;&gt;Node3</title>
<path fill="none" stroke="#191970" d="M96.5026,-56.2455C110.158,-47.6534 130.2657,-35.0014 145.9989,-25.1018"/>
<polygon fill="#191970" stroke="#191970" points="148.0751,-27.9307 154.675,-19.6427 144.3471,-22.006 148.0751,-27.9307"/>
</g>
<!-- Node7 -->
<g id="node8" class="node">
<title>Node7</title>
<polygon fill="#ffffff" stroke="#bfbfbf" points="299,-.5 299,-19.5 351,-19.5 351,-.5 299,-.5"/>
<text text-anchor="middle" x="325" y="-7.5" font-family="Helvetica,sans-Serif" font-size="10.00" fill="#000000">stdarg.h</text>
</g>
<!-- Node6&#45;&gt;Node7 -->
<g id="edge10" class="edge">
<title>Node6&#45;&gt;Node7</title>
<path fill="none" stroke="#191970" d="M325,-56.2455C325,-48.9382 325,-38.6944 325,-29.7046"/>
<polygon fill="#191970" stroke="#191970" points="328.5001,-29.6426 325,-19.6427 321.5001,-29.6427 328.5001,-29.6426"/>
</g>
</g>
</svg>
