<?xml version="1.0" encoding="UTF-8" standalone="no"?>
<!DOCTYPE svg PUBLIC "-//W3C//DTD SVG 1.1//EN"
 "http://www.w3.org/Graphics/SVG/1.1/DTD/svg11.dtd">
<!-- Generated by graphviz version 2.40.1 (20161225.0304)
 -->
<!-- Title: numerical_methods/qr_decompose.h Pages: 1 -->
<svg width="186pt" height="95pt"
 viewBox="0.00 0.00 185.50 95.00" xmlns="http://www.w3.org/2000/svg" xmlns:xlink="http://www.w3.org/1999/xlink">
<g id="graph0" class="graph" transform="scale(1 1) rotate(0) translate(4 91)">
<title>numerical_methods/qr_decompose.h</title>
<polygon fill="#ffffff" stroke="transparent" points="-4,4 -4,-91 181.5,-91 181.5,4 -4,4"/>
<!-- Node0 -->
<g id="node1" class="node">
<title>Node0</title>
<polygon fill="#bfbfbf" stroke="#000000" points="32,-56.5 32,-86.5 145,-86.5 145,-56.5 32,-56.5"/>
<text text-anchor="start" x="40" y="-74.5" font-family="Helvetica,sans-Serif" font-size="10.00" fill="#000000">numerical_methods/qr</text>
<text text-anchor="middle" x="88.5" y="-63.5" font-family="Helvetica,sans-Serif" font-size="10.00" fill="#000000">_decompose.h</text>
</g>
<!-- Node1 -->
<g id="node2" class="node">
<title>Node1</title>
<polygon fill="#ffffff" stroke="#bfbfbf" points="0,-.5 0,-19.5 47,-19.5 47,-.5 0,-.5"/>
<text text-anchor="middle" x="23.5" y="-7.5" font-family="Helvetica,sans-Serif" font-size="10.00" fill="#000000">math.h</text>
</g>
<!-- Node0&#45;&gt;Node1 -->
<g id="edge1" class="edge">
<title>Node0&#45;&gt;Node1</title>
<path fill="none" stroke="#191970" d="M72.4326,-56.2977C63.034,-47.4052 51.1473,-36.1586 41.443,-26.9769"/>
<polygon fill="#191970" stroke="#191970" points="43.5768,-24.1774 33.9073,-19.8469 38.7658,-29.2621 43.5768,-24.1774"/>
</g>
<!-- Node2 -->
<g id="node3" class="node">
<title>Node2</title>
<polygon fill="#ffffff" stroke="#bfbfbf" points="65.5,-.5 65.5,-19.5 111.5,-19.5 111.5,-.5 65.5,-.5"/>
<text text-anchor="middle" x="88.5" y="-7.5" font-family="Helvetica,sans-Serif" font-size="10.00" fill="#000000">stdio.h</text>
</g>
<!-- Node0&#45;&gt;Node2 -->
<g id="edge2" class="edge">
<title>Node0&#45;&gt;Node2</title>
<path fill="none" stroke="#191970" d="M88.5,-56.2977C88.5,-48.3834 88.5,-38.6043 88.5,-30.0759"/>
<polygon fill="#191970" stroke="#191970" points="92.0001,-29.8469 88.5,-19.8469 85.0001,-29.847 92.0001,-29.8469"/>
</g>
<!-- Node3 -->
<g id="node4" class="node">
<title>Node3</title>
<polygon fill="#ffffff" stroke="#bfbfbf" points="129.5,-.5 129.5,-19.5 177.5,-19.5 177.5,-.5 129.5,-.5"/>
<text text-anchor="middle" x="153.5" y="-7.5" font-family="Helvetica,sans-Serif" font-size="10.00" fill="#000000">stdlib.h</text>
</g>
<!-- Node0&#45;&gt;Node3 -->
<g id="edge3" class="edge">
<title>Node0&#45;&gt;Node3</title>
<path fill="none" stroke="#191970" d="M104.5674,-56.2977C113.966,-47.4052 125.8527,-36.1586 135.557,-26.9769"/>
<polygon fill="#191970" stroke="#191970" points="138.2342,-29.2621 143.0927,-19.8469 133.4232,-24.1774 138.2342,-29.2621"/>
</g>
</g>
</svg>
