<?xml version="1.0" encoding="UTF-8" standalone="no"?>
<!DOCTYPE svg PUBLIC "-//W3C//DTD SVG 1.1//EN"
 "http://www.w3.org/Graphics/SVG/1.1/DTD/svg11.dtd">
<!-- Generated by graphviz version 2.40.1 (20161225.0304)
 -->
<!-- Title: numerical_methods/qr_decomposition.c Pages: 1 -->
<svg width="317pt" height="151pt"
 viewBox="0.00 0.00 317.00 151.00" xmlns="http://www.w3.org/2000/svg" xmlns:xlink="http://www.w3.org/1999/xlink">
<g id="graph0" class="graph" transform="scale(1 1) rotate(0) translate(4 147)">
<title>numerical_methods/qr_decomposition.c</title>
<polygon fill="#ffffff" stroke="transparent" points="-4,4 -4,-147 313,-147 313,4 -4,4"/>
<!-- Node0 -->
<g id="node1" class="node">
<title>Node0</title>
<polygon fill="#bfbfbf" stroke="#000000" points="65.5,-112.5 65.5,-142.5 178.5,-142.5 178.5,-112.5 65.5,-112.5"/>
<text text-anchor="start" x="73.5" y="-130.5" font-family="Helvetica,sans-Serif" font-size="10.00" fill="#000000">numerical_methods/qr</text>
<text text-anchor="middle" x="122" y="-119.5" font-family="Helvetica,sans-Serif" font-size="10.00" fill="#000000">_decomposition.c</text>
</g>
<!-- Node1 -->
<g id="node2" class="node">
<title>Node1</title>
<polygon fill="#ffffff" stroke="#bfbfbf" points="0,-.5 0,-19.5 46,-19.5 46,-.5 0,-.5"/>
<text text-anchor="middle" x="23" y="-7.5" font-family="Helvetica,sans-Serif" font-size="10.00" fill="#000000">stdio.h</text>
</g>
<!-- Node0&#45;&gt;Node1 -->
<g id="edge1" class="edge">
<title>Node0&#45;&gt;Node1</title>
<path fill="none" stroke="#191970" d="M101.0343,-112.2931C88.7571,-102.7437 73.4638,-89.6769 62,-76 49.754,-61.39 39.0026,-42.4675 31.9068,-28.6319"/>
<polygon fill="#191970" stroke="#191970" points="34.9996,-26.9906 27.417,-19.591 28.7301,-30.1041 34.9996,-26.9906"/>
</g>
<!-- Node2 -->
<g id="node3" class="node">
<title>Node2</title>
<polygon fill="#ffffff" stroke="#bfbfbf" points="75.5,-.5 75.5,-19.5 122.5,-19.5 122.5,-.5 75.5,-.5"/>
<text text-anchor="middle" x="99" y="-7.5" font-family="Helvetica,sans-Serif" font-size="10.00" fill="#000000">math.h</text>
</g>
<!-- Node0&#45;&gt;Node2 -->
<g id="edge2" class="edge">
<title>Node0&#45;&gt;Node2</title>
<path fill="none" stroke="#191970" d="M98.778,-112.322C87.1899,-103.3119 74.3229,-90.7675 68,-76 60.8879,-59.3893 71.3436,-40.7841 81.9878,-27.5721"/>
<polygon fill="#191970" stroke="#191970" points="84.8834,-29.5775 88.8272,-19.744 79.6119,-24.9719 84.8834,-29.5775"/>
</g>
<!-- Node3 -->
<g id="node4" class="node">
<title>Node3</title>
<polygon fill="#ffffff" stroke="#bfbfbf" points="156,-.5 156,-19.5 204,-19.5 204,-.5 156,-.5"/>
<text text-anchor="middle" x="180" y="-7.5" font-family="Helvetica,sans-Serif" font-size="10.00" fill="#000000">stdlib.h</text>
</g>
<!-- Node0&#45;&gt;Node3 -->
<g id="edge3" class="edge">
<title>Node0&#45;&gt;Node3</title>
<path fill="none" stroke="#191970" d="M143.8204,-112.4738C155.2021,-103.3464 168.1483,-90.6418 175,-76 181.6968,-61.689 182.6422,-43.7111 182.0826,-30.1338"/>
<polygon fill="#191970" stroke="#191970" points="185.558,-29.665 181.3516,-19.941 178.576,-30.1658 185.558,-29.665"/>
</g>
<!-- Node4 -->
<g id="node5" class="node">
<title>Node4</title>
<g id="a_node5"><a xlink:href="qr__decompose_8h.html" target="_top" xlink:title="qr_decompose.h">
<polygon fill="#ffffff" stroke="#000000" points="77.5,-56.5 77.5,-75.5 166.5,-75.5 166.5,-56.5 77.5,-56.5"/>
<text text-anchor="middle" x="122" y="-63.5" font-family="Helvetica,sans-Serif" font-size="10.00" fill="#000000">qr_decompose.h</text>
</a>
</g>
</g>
<!-- Node0&#45;&gt;Node4 -->
<g id="edge4" class="edge">
<title>Node0&#45;&gt;Node4</title>
<path fill="none" stroke="#191970" d="M122,-112.2977C122,-104.3834 122,-94.6043 122,-86.0759"/>
<polygon fill="#191970" stroke="#191970" points="125.5001,-85.8469 122,-75.8469 118.5001,-85.847 125.5001,-85.8469"/>
</g>
<!-- Node5 -->
<g id="node6" class="node">
<title>Node5</title>
<g id="a_node6"><a xlink:href="function__timer_8h.html" target="_top" xlink:title="Provides wrappers around C++ high&#45;precesion timer from &quot;std::chrono&quot; to C and C++ as a library...">
<polygon fill="#ffffff" stroke="#000000" points="223,-56.5 223,-75.5 309,-75.5 309,-56.5 223,-56.5"/>
<text text-anchor="middle" x="266" y="-63.5" font-family="Helvetica,sans-Serif" font-size="10.00" fill="#000000">function_timer.h</text>
</a>
</g>
</g>
<!-- Node0&#45;&gt;Node5 -->
<g id="edge8" class="edge">
<title>Node0&#45;&gt;Node5</title>
<path fill="none" stroke="#191970" d="M157.2264,-112.4554C180.8316,-102.374 211.6454,-89.2139 234.4476,-79.4755"/>
<polygon fill="#191970" stroke="#191970" points="235.8634,-82.6767 243.6851,-75.5303 233.114,-76.2393 235.8634,-82.6767"/>
</g>
<!-- Node4&#45;&gt;Node1 -->
<g id="edge6" class="edge">
<title>Node4&#45;&gt;Node1</title>
<path fill="none" stroke="#191970" d="M104.7555,-56.2455C89.4239,-47.5731 66.7801,-34.7645 49.2084,-24.825"/>
<polygon fill="#191970" stroke="#191970" points="50.4741,-21.5198 40.0469,-19.6427 47.0276,-27.6126 50.4741,-21.5198"/>
</g>
<!-- Node4&#45;&gt;Node2 -->
<g id="edge5" class="edge">
<title>Node4&#45;&gt;Node2</title>
<path fill="none" stroke="#191970" d="M117.9937,-56.2455C114.9265,-48.7776 110.5997,-38.2427 106.8503,-29.1137"/>
<polygon fill="#191970" stroke="#191970" points="109.9972,-27.5631 102.9604,-19.6427 103.5221,-30.2226 109.9972,-27.5631"/>
</g>
<!-- Node4&#45;&gt;Node3 -->
<g id="edge7" class="edge">
<title>Node4&#45;&gt;Node3</title>
<path fill="none" stroke="#191970" d="M132.1028,-56.2455C140.5028,-48.1352 152.6494,-36.4075 162.6084,-26.7919"/>
<polygon fill="#191970" stroke="#191970" points="165.25,-29.1066 170.0129,-19.6427 160.3878,-24.0707 165.25,-29.1066"/>
</g>
<!-- Node6 -->
<g id="node7" class="node">
<title>Node6</title>
<polygon fill="#ffffff" stroke="#bfbfbf" points="240,-.5 240,-19.5 292,-19.5 292,-.5 240,-.5"/>
<text text-anchor="middle" x="266" y="-7.5" font-family="Helvetica,sans-Serif" font-size="10.00" fill="#000000">stdarg.h</text>
</g>
<!-- Node5&#45;&gt;Node6 -->
<g id="edge9" class="edge">
<title>Node5&#45;&gt;Node6</title>
<path fill="none" stroke="#191970" d="M266,-56.2455C266,-48.9382 266,-38.6944 266,-29.7046"/>
<polygon fill="#191970" stroke="#191970" points="269.5001,-29.6426 266,-19.6427 262.5001,-29.6427 269.5001,-29.6426"/>
</g>
</g>
</svg>
