<?xml version="1.0" encoding="UTF-8" standalone="no"?>
<!DOCTYPE svg PUBLIC "-//W3C//DTD SVG 1.1//EN"
 "http://www.w3.org/Graphics/SVG/1.1/DTD/svg11.dtd">
<!-- Generated by graphviz version 2.40.1 (20161225.0304)
 -->
<!-- Title: qr_decompose Pages: 1 -->
<svg width="290pt" height="142pt"
 viewBox="0.00 0.00 290.00 142.00" xmlns="http://www.w3.org/2000/svg" xmlns:xlink="http://www.w3.org/1999/xlink">
<g id="graph0" class="graph" transform="scale(1 1) rotate(0) translate(4 138)">
<title>qr_decompose</title>
<polygon fill="#ffffff" stroke="transparent" points="-4,4 -4,-138 286,-138 286,4 -4,4"/>
<!-- Node1 -->
<g id="node1" class="node">
<title>Node1</title>
<polygon fill="#bfbfbf" stroke="#000000" points="0,-57.5 0,-76.5 80,-76.5 80,-57.5 0,-57.5"/>
<text text-anchor="middle" x="40" y="-64.5" font-family="Helvetica,sans-Serif" font-size="10.00" fill="#000000">qr_decompose</text>
</g>
<!-- Node2 -->
<g id="node2" class="node">
<title>Node2</title>
<g id="a_node2"><a xlink:href="qr__decompose_8h.html#a82b20e027437df768d7e994cf4cae29f" target="_top" xlink:title="vector_proj">
<polygon fill="#ffffff" stroke="#000000" points="117.5,-114.5 117.5,-133.5 182.5,-133.5 182.5,-114.5 117.5,-114.5"/>
<text text-anchor="middle" x="150" y="-121.5" font-family="Helvetica,sans-Serif" font-size="10.00" fill="#000000">vector_proj</text>
</a>
</g>
</g>
<!-- Node1&#45;&gt;Node2 -->
<g id="edge1" class="edge">
<title>Node1&#45;&gt;Node2</title>
<path fill="none" stroke="#191970" d="M58.66,-76.6693C76.228,-85.7727 102.7495,-99.5157 122.6955,-109.8513"/>
<polygon fill="#191970" stroke="#191970" points="121.1265,-112.9802 131.6156,-114.4735 124.3471,-106.7651 121.1265,-112.9802"/>
</g>
<!-- Node3 -->
<g id="node3" class="node">
<title>Node3</title>
<g id="a_node3"><a xlink:href="qr__decompose_8h.html#a3a584b79941a43d775f9d4ce446dbe05" target="_top" xlink:title="vector_dot">
<polygon fill="#ffffff" stroke="#000000" points="220,-76.5 220,-95.5 282,-95.5 282,-76.5 220,-76.5"/>
<text text-anchor="middle" x="251" y="-83.5" font-family="Helvetica,sans-Serif" font-size="10.00" fill="#000000">vector_dot</text>
</a>
</g>
</g>
<!-- Node1&#45;&gt;Node3 -->
<g id="edge6" class="edge">
<title>Node1&#45;&gt;Node3</title>
<path fill="none" stroke="#191970" d="M80.1841,-70.6185C117.3442,-73.9646 172.3281,-78.9158 209.8067,-82.2906"/>
<polygon fill="#191970" stroke="#191970" points="209.6103,-85.787 219.8839,-83.1981 210.2382,-78.8152 209.6103,-85.787"/>
</g>
<!-- Node4 -->
<g id="node4" class="node">
<title>Node4</title>
<g id="a_node4"><a xlink:href="qr__decompose_8h.html#a6b6a0e75e75ff7919057dd275bb69145" target="_top" xlink:title="vector_sub">
<polygon fill="#ffffff" stroke="#000000" points="117.5,-38.5 117.5,-57.5 182.5,-57.5 182.5,-38.5 117.5,-38.5"/>
<text text-anchor="middle" x="150" y="-45.5" font-family="Helvetica,sans-Serif" font-size="10.00" fill="#000000">vector_sub</text>
</a>
</g>
</g>
<!-- Node1&#45;&gt;Node4 -->
<g id="edge3" class="edge">
<title>Node1&#45;&gt;Node4</title>
<path fill="none" stroke="#191970" d="M80.0237,-60.0868C88.9501,-58.545 98.4463,-56.9047 107.4697,-55.3461"/>
<polygon fill="#191970" stroke="#191970" points="108.1427,-58.7818 117.4011,-53.6307 106.9512,-51.8839 108.1427,-58.7818"/>
</g>
<!-- Node5 -->
<g id="node5" class="node">
<title>Node5</title>
<g id="a_node5"><a xlink:href="qr__decompose_8h.html#abeec1f78a7a7e7251687e75340331212" target="_top" xlink:title="vector_mag">
<polygon fill="#ffffff" stroke="#000000" points="116,-.5 116,-19.5 184,-19.5 184,-.5 116,-.5"/>
<text text-anchor="middle" x="150" y="-7.5" font-family="Helvetica,sans-Serif" font-size="10.00" fill="#000000">vector_mag</text>
</a>
</g>
</g>
<!-- Node1&#45;&gt;Node5 -->
<g id="edge4" class="edge">
<title>Node1&#45;&gt;Node5</title>
<path fill="none" stroke="#191970" d="M58.66,-57.3307C76.228,-48.2273 102.7495,-34.4843 122.6955,-24.1487"/>
<polygon fill="#191970" stroke="#191970" points="124.3471,-27.2349 131.6156,-19.5265 121.1265,-21.0198 124.3471,-27.2349"/>
</g>
<!-- Node2&#45;&gt;Node3 -->
<g id="edge2" class="edge">
<title>Node2&#45;&gt;Node3</title>
<path fill="none" stroke="#191970" d="M175.4866,-114.411C187.807,-109.7756 202.7849,-104.1404 216.1426,-99.1147"/>
<polygon fill="#191970" stroke="#191970" points="217.3946,-102.3832 225.5216,-95.5859 214.9296,-95.8316 217.3946,-102.3832"/>
</g>
<!-- Node5&#45;&gt;Node3 -->
<g id="edge5" class="edge">
<title>Node5&#45;&gt;Node3</title>
<path fill="none" stroke="#191970" d="M168.7491,-19.6181C173.8204,-22.4487 179.2244,-25.6817 184,-29 201.8638,-41.4126 220.5905,-57.6584 233.6897,-69.6293"/>
<polygon fill="#191970" stroke="#191970" points="231.3462,-72.2293 241.0606,-76.4578 236.1034,-67.0942 231.3462,-72.2293"/>
</g>
</g>
</svg>
