<?xml version="1.0" encoding="UTF-8" standalone="no"?>
<!DOCTYPE svg PUBLIC "-//W3C//DTD SVG 1.1//EN"
 "http://www.w3.org/Graphics/SVG/1.1/DTD/svg11.dtd">
<!-- Generated by graphviz version 2.40.1 (20161225.0304)
 -->
<!-- Title: main Pages: 1 -->
<svg width="377pt" height="256pt"
 viewBox="0.00 0.00 377.00 256.00" xmlns="http://www.w3.org/2000/svg" xmlns:xlink="http://www.w3.org/1999/xlink">
<g id="graph0" class="graph" transform="scale(1 1) rotate(0) translate(4 252)">
<title>main</title>
<polygon fill="#ffffff" stroke="transparent" points="-4,4 -4,-252 373,-252 373,4 -4,4"/>
<!-- Node1 -->
<g id="node1" class="node">
<title>Node1</title>
<polygon fill="#bfbfbf" stroke="#000000" points="0,-114.5 0,-133.5 38,-133.5 38,-114.5 0,-114.5"/>
<text text-anchor="middle" x="19" y="-121.5" font-family="Helvetica,sans-Serif" font-size="10.00" fill="#000000">main</text>
</g>
<!-- Node2 -->
<g id="node2" class="node">
<title>Node2</title>
<g id="a_node2"><a xlink:href="qr__eigen__values_8c.html#a7d96c5e4ae1bd6d29791bcc23a4cb2b0" target="_top" xlink:title="create_matrix">
<polygon fill="#ffffff" stroke="#000000" points="81.5,-228.5 81.5,-247.5 157.5,-247.5 157.5,-228.5 81.5,-228.5"/>
<text text-anchor="middle" x="119.5" y="-235.5" font-family="Helvetica,sans-Serif" font-size="10.00" fill="#000000">create_matrix</text>
</a>
</g>
</g>
<!-- Node1&#45;&gt;Node2 -->
<g id="edge1" class="edge">
<title>Node1&#45;&gt;Node2</title>
<path fill="none" stroke="#191970" d="M22.2278,-133.7239C28.9603,-152.6244 46.2234,-194.5994 74,-219 75.7244,-220.5148 77.5867,-221.9207 79.5391,-223.224"/>
<polygon fill="#191970" stroke="#191970" points="78.0991,-226.4303 88.5278,-228.2993 81.5409,-220.3348 78.0991,-226.4303"/>
</g>
<!-- Node3 -->
<g id="node3" class="node">
<title>Node3</title>
<g id="a_node3"><a xlink:href="qr__decompose_8h.html#a90562ce8c3707401e9c5809dece68d6a" target="_top" xlink:title="print_matrix">
<polygon fill="#ffffff" stroke="#000000" points="85.5,-190.5 85.5,-209.5 153.5,-209.5 153.5,-190.5 85.5,-190.5"/>
<text text-anchor="middle" x="119.5" y="-197.5" font-family="Helvetica,sans-Serif" font-size="10.00" fill="#000000">print_matrix</text>
</a>
</g>
</g>
<!-- Node1&#45;&gt;Node3 -->
<g id="edge2" class="edge">
<title>Node1&#45;&gt;Node3</title>
<path fill="none" stroke="#191970" d="M26.233,-133.6431C35.935,-146.0197 54.2438,-167.5011 74,-181 76.6858,-182.8352 79.5769,-184.5442 82.553,-186.124"/>
<polygon fill="#191970" stroke="#191970" points="81.0865,-189.3024 91.6164,-190.4731 84.1148,-182.9913 81.0865,-189.3024"/>
</g>
<!-- Node4 -->
<g id="node4" class="node">
<title>Node4</title>
<g id="a_node4"><a xlink:href="function__timer_8h.html#accb7f00d99dee0675cc8355215ffa4ea" target="_top" xlink:title="new_timer">
<polygon fill="#ffffff" stroke="#000000" points="88.5,-152.5 88.5,-171.5 150.5,-171.5 150.5,-152.5 88.5,-152.5"/>
<text text-anchor="middle" x="119.5" y="-159.5" font-family="Helvetica,sans-Serif" font-size="10.00" fill="#000000">new_timer</text>
</a>
</g>
</g>
<!-- Node1&#45;&gt;Node4 -->
<g id="edge3" class="edge">
<title>Node1&#45;&gt;Node4</title>
<path fill="none" stroke="#191970" d="M38.3774,-131.3268C51.385,-136.2451 68.8989,-142.8672 84.3242,-148.6997"/>
<polygon fill="#191970" stroke="#191970" points="83.4993,-152.1296 94.0909,-152.3926 85.9751,-145.582 83.4993,-152.1296"/>
</g>
<!-- Node5 -->
<g id="node5" class="node">
<title>Node5</title>
<g id="a_node5"><a xlink:href="function__timer_8h.html#ad22e8b158b90f5a405241a943120479a" target="_top" xlink:title="start_timer">
<polygon fill="#ffffff" stroke="#000000" points="88,-114.5 88,-133.5 151,-133.5 151,-114.5 88,-114.5"/>
<text text-anchor="middle" x="119.5" y="-121.5" font-family="Helvetica,sans-Serif" font-size="10.00" fill="#000000">start_timer</text>
</a>
</g>
</g>
<!-- Node1&#45;&gt;Node5 -->
<g id="edge4" class="edge">
<title>Node1&#45;&gt;Node5</title>
<path fill="none" stroke="#191970" d="M38.3774,-124C49.5589,-124 64.0701,-124 77.7222,-124"/>
<polygon fill="#191970" stroke="#191970" points="77.9253,-127.5001 87.9253,-124 77.9252,-120.5001 77.9253,-127.5001"/>
</g>
<!-- Node6 -->
<g id="node6" class="node">
<title>Node6</title>
<g id="a_node6"><a xlink:href="qr__decompose_8h.html#a45c7640d9d22c89c11beb1f567843c56" target="_top" xlink:title="qr_decompose">
<polygon fill="#ffffff" stroke="#000000" points="79.5,-76.5 79.5,-95.5 159.5,-95.5 159.5,-76.5 79.5,-76.5"/>
<text text-anchor="middle" x="119.5" y="-83.5" font-family="Helvetica,sans-Serif" font-size="10.00" fill="#000000">qr_decompose</text>
</a>
</g>
</g>
<!-- Node1&#45;&gt;Node6 -->
<g id="edge5" class="edge">
<title>Node1&#45;&gt;Node6</title>
<path fill="none" stroke="#191970" d="M38.3774,-116.6732C51.385,-111.7549 68.8989,-105.1328 84.3242,-99.3003"/>
<polygon fill="#191970" stroke="#191970" points="85.9751,-102.418 94.0909,-95.6074 83.4993,-95.8704 85.9751,-102.418"/>
</g>
<!-- Node11 -->
<g id="node11" class="node">
<title>Node11</title>
<g id="a_node11"><a xlink:href="qr__eigen__values_8c.html#a741477692f001a805b0fea942c9dc2b9" target="_top" xlink:title="mat_mul">
<polygon fill="#ffffff" stroke="#000000" points="92.5,-38.5 92.5,-57.5 146.5,-57.5 146.5,-38.5 92.5,-38.5"/>
<text text-anchor="middle" x="119.5" y="-45.5" font-family="Helvetica,sans-Serif" font-size="10.00" fill="#000000">mat_mul</text>
</a>
</g>
</g>
<!-- Node1&#45;&gt;Node11 -->
<g id="edge12" class="edge">
<title>Node1&#45;&gt;Node11</title>
<path fill="none" stroke="#191970" d="M26.233,-114.3569C35.935,-101.9803 54.2438,-80.4989 74,-67 76.7565,-65.1165 79.7292,-63.366 82.7881,-61.7515"/>
<polygon fill="#191970" stroke="#191970" points="84.5704,-64.7795 92.0939,-57.3198 81.5606,-58.4595 84.5704,-64.7795"/>
</g>
<!-- Node12 -->
<g id="node12" class="node">
<title>Node12</title>
<g id="a_node12"><a xlink:href="function__timer_8h.html#a527744876e07c6dd44defd7c40177afa" target="_top" xlink:title="end_timer_delete">
<polygon fill="#ffffff" stroke="#000000" points="74,-.5 74,-19.5 165,-19.5 165,-.5 74,-.5"/>
<text text-anchor="middle" x="119.5" y="-7.5" font-family="Helvetica,sans-Serif" font-size="10.00" fill="#000000">end_timer_delete</text>
</a>
</g>
</g>
<!-- Node1&#45;&gt;Node12 -->
<g id="edge13" class="edge">
<title>Node1&#45;&gt;Node12</title>
<path fill="none" stroke="#191970" d="M22.2278,-114.2761C28.9603,-95.3756 46.2234,-53.4006 74,-29 75.7244,-27.4852 77.5867,-26.0793 79.5391,-24.776"/>
<polygon fill="#191970" stroke="#191970" points="81.5409,-27.6652 88.5278,-19.7007 78.0991,-21.5697 81.5409,-27.6652"/>
</g>
<!-- Node7 -->
<g id="node7" class="node">
<title>Node7</title>
<g id="a_node7"><a xlink:href="qr__decompose_8h.html#a82b20e027437df768d7e994cf4cae29f" target="_top" xlink:title="vector_proj">
<polygon fill="#ffffff" stroke="#000000" points="203.5,-152.5 203.5,-171.5 268.5,-171.5 268.5,-152.5 203.5,-152.5"/>
<text text-anchor="middle" x="236" y="-159.5" font-family="Helvetica,sans-Serif" font-size="10.00" fill="#000000">vector_proj</text>
</a>
</g>
</g>
<!-- Node6&#45;&gt;Node7 -->
<g id="edge6" class="edge">
<title>Node6&#45;&gt;Node7</title>
<path fill="none" stroke="#191970" d="M146.7424,-95.5674C152.9525,-98.2352 159.3741,-101.4038 165,-105 183.2881,-116.6901 184.0075,-124.4958 201,-138 204.6681,-140.9151 208.6737,-143.863 212.6226,-146.6474"/>
<polygon fill="#191970" stroke="#191970" points="210.7968,-149.6391 221.0241,-152.4056 214.7542,-143.8651 210.7968,-149.6391"/>
</g>
<!-- Node8 -->
<g id="node8" class="node">
<title>Node8</title>
<g id="a_node8"><a xlink:href="qr__decompose_8h.html#a3a584b79941a43d775f9d4ce446dbe05" target="_top" xlink:title="vector_dot">
<polygon fill="#ffffff" stroke="#000000" points="307,-114.5 307,-133.5 369,-133.5 369,-114.5 307,-114.5"/>
<text text-anchor="middle" x="338" y="-121.5" font-family="Helvetica,sans-Serif" font-size="10.00" fill="#000000">vector_dot</text>
</a>
</g>
</g>
<!-- Node6&#45;&gt;Node8 -->
<g id="edge11" class="edge">
<title>Node6&#45;&gt;Node8</title>
<path fill="none" stroke="#191970" d="M157.0849,-95.5177C170.8429,-98.8015 186.5721,-102.3235 201,-105 233.0306,-110.9419 269.5883,-115.9221 296.8789,-119.2911"/>
<polygon fill="#191970" stroke="#191970" points="296.5069,-122.7716 306.8558,-120.5021 297.3504,-115.8226 296.5069,-122.7716"/>
</g>
<!-- Node9 -->
<g id="node9" class="node">
<title>Node9</title>
<g id="a_node9"><a xlink:href="qr__decompose_8h.html#a6b6a0e75e75ff7919057dd275bb69145" target="_top" xlink:title="vector_sub">
<polygon fill="#ffffff" stroke="#000000" points="203.5,-76.5 203.5,-95.5 268.5,-95.5 268.5,-76.5 203.5,-76.5"/>
<text text-anchor="middle" x="236" y="-83.5" font-family="Helvetica,sans-Serif" font-size="10.00" fill="#000000">vector_sub</text>
</a>
</g>
</g>
<!-- Node6&#45;&gt;Node9 -->
<g id="edge8" class="edge">
<title>Node6&#45;&gt;Node9</title>
<path fill="none" stroke="#191970" d="M159.5927,-86C170.3664,-86 182.0609,-86 192.9863,-86"/>
<polygon fill="#191970" stroke="#191970" points="193.1703,-89.5001 203.1703,-86 193.1703,-82.5001 193.1703,-89.5001"/>
</g>
<!-- Node10 -->
<g id="node10" class="node">
<title>Node10</title>
<g id="a_node10"><a xlink:href="qr__decompose_8h.html#abeec1f78a7a7e7251687e75340331212" target="_top" xlink:title="vector_mag">
<polygon fill="#ffffff" stroke="#000000" points="202,-38.5 202,-57.5 270,-57.5 270,-38.5 202,-38.5"/>
<text text-anchor="middle" x="236" y="-45.5" font-family="Helvetica,sans-Serif" font-size="10.00" fill="#000000">vector_mag</text>
</a>
</g>
</g>
<!-- Node6&#45;&gt;Node10 -->
<g id="edge9" class="edge">
<title>Node6&#45;&gt;Node10</title>
<path fill="none" stroke="#191970" d="M148.8979,-76.411C163.385,-71.6856 181.0576,-65.9211 196.6886,-60.8226"/>
<polygon fill="#191970" stroke="#191970" points="198.1899,-64.0145 206.6115,-57.5859 196.0191,-57.3595 198.1899,-64.0145"/>
</g>
<!-- Node7&#45;&gt;Node8 -->
<g id="edge7" class="edge">
<title>Node7&#45;&gt;Node8</title>
<path fill="none" stroke="#191970" d="M261.7389,-152.411C274.1813,-147.7756 289.3075,-142.1404 302.7975,-137.1147"/>
<polygon fill="#191970" stroke="#191970" points="304.1204,-140.3569 312.2693,-133.5859 301.6766,-133.7973 304.1204,-140.3569"/>
</g>
<!-- Node10&#45;&gt;Node8 -->
<g id="edge10" class="edge">
<title>Node10&#45;&gt;Node8</title>
<path fill="none" stroke="#191970" d="M255.3169,-57.559C260.5374,-60.3894 266.0963,-63.637 271,-67 288.9395,-79.303 307.6577,-95.5612 320.7344,-107.5645"/>
<polygon fill="#191970" stroke="#191970" points="318.3868,-110.161 328.0901,-114.4151 323.1576,-105.0385 318.3868,-110.161"/>
</g>
<!-- Node13 -->
<g id="node13" class="node">
<title>Node13</title>
<g id="a_node13"><a xlink:href="function__timer_8h.html#a1e245d139d00f5f5246dc4154da7d6b2" target="_top" xlink:title="delete_timer">
<polygon fill="#ffffff" stroke="#000000" points="201,-.5 201,-19.5 271,-19.5 271,-.5 201,-.5"/>
<text text-anchor="middle" x="236" y="-7.5" font-family="Helvetica,sans-Serif" font-size="10.00" fill="#000000">delete_timer</text>
</a>
</g>
</g>
<!-- Node12&#45;&gt;Node13 -->
<g id="edge14" class="edge">
<title>Node12&#45;&gt;Node13</title>
<path fill="none" stroke="#191970" d="M165.2095,-10C173.639,-10 182.4363,-10 190.8491,-10"/>
<polygon fill="#191970" stroke="#191970" points="190.8697,-13.5001 200.8696,-10 190.8696,-6.5001 190.8697,-13.5001"/>
</g>
</g>
</svg>
