<?xml version="1.0" encoding="UTF-8" standalone="no"?>
<!DOCTYPE svg PUBLIC "-//W3C//DTD SVG 1.1//EN"
 "http://www.w3.org/Graphics/SVG/1.1/DTD/svg11.dtd">
<!-- Generated by graphviz version 2.40.1 (20161225.0304)
 -->
<!-- Title: node Pages: 1 -->
<svg width="107pt" height="96pt"
 viewBox="0.00 0.00 107.00 96.00" xmlns="http://www.w3.org/2000/svg" xmlns:xlink="http://www.w3.org/1999/xlink">
<g id="graph0" class="graph" transform="scale(1 1) rotate(0) translate(4 92)">
<title>node</title>
<polygon fill="#ffffff" stroke="transparent" points="-4,4 -4,-92 103,-92 103,4 -4,4"/>
<!-- Node1 -->
<g id="node1" class="node">
<title>Node1</title>
<polygon fill="#bfbfbf" stroke="#000000" points="0,-34.5 0,-53.5 38,-53.5 38,-34.5 0,-34.5"/>
<text text-anchor="middle" x="19" y="-41.5" font-family="Helvetica,sans-Serif" font-size="10.00" fill="#000000">node</text>
</g>
<!-- Node1&#45;&gt;Node1 -->
<g id="edge1" class="edge">
<title>Node1&#45;&gt;Node1</title>
<path fill="none" stroke="#9a32cd" stroke-dasharray="5,2" d="M48.2501,-47.4435C52.8553,-46.9331 56,-45.7853 56,-44 56,-41.0703 47.5314,-39.8572 38.0372,-40.3608"/>
<polygon fill="#9a32cd" stroke="#9a32cd" points="47.9683,-43.9482 38.0372,-47.6392 48.1025,-50.9469 47.9683,-43.9482"/>
<text text-anchor="middle" x="77.5" y="-80" font-family="Helvetica,sans-Serif" font-size="10.00" fill="#000000"> leftNode</text>
<text text-anchor="middle" x="77.5" y="-69" font-family="Helvetica,sans-Serif" font-size="10.00" fill="#000000">next</text>
<text text-anchor="middle" x="77.5" y="-58" font-family="Helvetica,sans-Serif" font-size="10.00" fill="#000000">right</text>
<text text-anchor="middle" x="77.5" y="-47" font-family="Helvetica,sans-Serif" font-size="10.00" fill="#000000">left</text>
<text text-anchor="middle" x="77.5" y="-36" font-family="Helvetica,sans-Serif" font-size="10.00" fill="#000000">par</text>
<text text-anchor="middle" x="77.5" y="-25" font-family="Helvetica,sans-Serif" font-size="10.00" fill="#000000">link</text>
<text text-anchor="middle" x="77.5" y="-14" font-family="Helvetica,sans-Serif" font-size="10.00" fill="#000000">pre</text>
<text text-anchor="middle" x="77.5" y="-3" font-family="Helvetica,sans-Serif" font-size="10.00" fill="#000000">rightNode</text>
</g>
</g>
</svg>
