<?xml version="1.0" encoding="UTF-8" standalone="no"?>
<!DOCTYPE svg PUBLIC "-//W3C//DTD SVG 1.1//EN"
 "http://www.w3.org/Graphics/SVG/1.1/DTD/svg11.dtd">
<!-- Generated by graphviz version 2.40.1 (20161225.0304)
 -->
<!-- Title: Graph Pages: 1 -->
<svg width="165pt" height="174pt"
 viewBox="0.00 0.00 164.50 174.00" xmlns="http://www.w3.org/2000/svg" xmlns:xlink="http://www.w3.org/1999/xlink">
<g id="graph0" class="graph" transform="scale(1 1) rotate(0) translate(4 170)">
<title>Graph</title>
<polygon fill="#ffffff" stroke="transparent" points="-4,4 -4,-170 160.5,-170 160.5,4 -4,4"/>
<!-- Node1 -->
<g id="node1" class="node">
<title>Node1</title>
<polygon fill="#bfbfbf" stroke="#000000" points="56.5,-.5 56.5,-19.5 99.5,-19.5 99.5,-.5 56.5,-.5"/>
<text text-anchor="middle" x="78" y="-7.5" font-family="Helvetica,sans-Serif" font-size="10.00" fill="#000000">Graph</text>
</g>
<!-- Node2 -->
<g id="node2" class="node">
<title>Node2</title>
<g id="a_node2"><a xlink:href="structnode.html" target="_top" xlink:title="node">
<polygon fill="#ffffff" stroke="#000000" points="0,-112.5 0,-131.5 38,-131.5 38,-112.5 0,-112.5"/>
<text text-anchor="middle" x="19" y="-119.5" font-family="Helvetica,sans-Serif" font-size="10.00" fill="#000000">node</text>
</a>
</g>
</g>
<!-- Node2&#45;&gt;Node1 -->
<g id="edge1" class="edge">
<title>Node2&#45;&gt;Node1</title>
<path fill="none" stroke="#9a32cd" stroke-dasharray="5,2" d="M28.7075,-103.5723C41.4085,-79.4618 63.1959,-38.1028 72.9824,-19.5249"/>
<polygon fill="#9a32cd" stroke="#9a32cd" points="25.5945,-101.9722 24.0303,-112.4509 31.7877,-105.2347 25.5945,-101.9722"/>
<text text-anchor="middle" x="81.5" y="-46.5" font-family="Helvetica,sans-Serif" font-size="10.00" fill="#000000"> adjLists</text>
</g>
<!-- Node2&#45;&gt;Node2 -->
<g id="edge2" class="edge">
<title>Node2&#45;&gt;Node2</title>
<path fill="none" stroke="#9a32cd" stroke-dasharray="5,2" d="M38.6056,-135.2025C47.8667,-136.7368 56,-132.3359 56,-122 56,-108.2188 41.5409,-104.9888 29.228,-112.3101"/>
<polygon fill="#9a32cd" stroke="#9a32cd" points="39.8203,-131.9201 29.228,-131.6899 37.3649,-138.4753 39.8203,-131.9201"/>
<text text-anchor="middle" x="77.5" y="-158" font-family="Helvetica,sans-Serif" font-size="10.00" fill="#000000"> leftNode</text>
<text text-anchor="middle" x="77.5" y="-147" font-family="Helvetica,sans-Serif" font-size="10.00" fill="#000000">next</text>
<text text-anchor="middle" x="77.5" y="-136" font-family="Helvetica,sans-Serif" font-size="10.00" fill="#000000">right</text>
<text text-anchor="middle" x="77.5" y="-125" font-family="Helvetica,sans-Serif" font-size="10.00" fill="#000000">left</text>
<text text-anchor="middle" x="77.5" y="-114" font-family="Helvetica,sans-Serif" font-size="10.00" fill="#000000">par</text>
<text text-anchor="middle" x="77.5" y="-103" font-family="Helvetica,sans-Serif" font-size="10.00" fill="#000000">link</text>
<text text-anchor="middle" x="77.5" y="-92" font-family="Helvetica,sans-Serif" font-size="10.00" fill="#000000">pre</text>
<text text-anchor="middle" x="77.5" y="-81" font-family="Helvetica,sans-Serif" font-size="10.00" fill="#000000">rightNode</text>
</g>
<!-- Node3 -->
<g id="node3" class="node">
<title>Node3</title>
<g id="a_node3"><a xlink:href="structEdge.html" target="_top" xlink:title="Edge">
<polygon fill="#ffffff" stroke="#000000" points="117.5,-112.5 117.5,-131.5 156.5,-131.5 156.5,-112.5 117.5,-112.5"/>
<text text-anchor="middle" x="137" y="-119.5" font-family="Helvetica,sans-Serif" font-size="10.00" fill="#000000">Edge</text>
</a>
</g>
</g>
<!-- Node3&#45;&gt;Node1 -->
<g id="edge3" class="edge">
<title>Node3&#45;&gt;Node1</title>
<path fill="none" stroke="#9a32cd" stroke-dasharray="5,2" d="M131.6656,-102.6441C126.2817,-84.968 116.9165,-58.5402 104,-38 99.7624,-31.2612 93.7847,-24.6877 88.6293,-19.6052"/>
<polygon fill="#9a32cd" stroke="#9a32cd" points="128.3461,-103.7634 134.4996,-112.3881 135.0676,-101.8085 128.3461,-103.7634"/>
<text text-anchor="middle" x="128.5" y="-52" font-family="Helvetica,sans-Serif" font-size="10.00" fill="#000000"> edge</text>
<text text-anchor="middle" x="128.5" y="-41" font-family="Helvetica,sans-Serif" font-size="10.00" fill="#000000">edges</text>
</g>
</g>
</svg>
