<?xml version="1.0" encoding="UTF-8" standalone="no"?>
<!DOCTYPE svg PUBLIC "-//W3C//DTD SVG 1.1//EN"
 "http://www.w3.org/Graphics/SVG/1.1/DTD/svg11.dtd">
<!-- Generated by graphviz version 2.40.1 (20161225.0304)
 -->
<!-- Title: QueueRep Pages: 1 -->
<svg width="120pt" height="174pt"
 viewBox="0.00 0.00 119.50 174.00" xmlns="http://www.w3.org/2000/svg" xmlns:xlink="http://www.w3.org/1999/xlink">
<g id="graph0" class="graph" transform="scale(1 1) rotate(0) translate(4 170)">
<title>QueueRep</title>
<polygon fill="#ffffff" stroke="transparent" points="-4,4 -4,-170 115.5,-170 115.5,4 -4,4"/>
<!-- Node1 -->
<g id="node1" class="node">
<title>Node1</title>
<polygon fill="#bfbfbf" stroke="#000000" points="0,-.5 0,-19.5 63,-19.5 63,-.5 0,-.5"/>
<text text-anchor="middle" x="31.5" y="-7.5" font-family="Helvetica,sans-Serif" font-size="10.00" fill="#000000">QueueRep</text>
</g>
<!-- Node2 -->
<g id="node2" class="node">
<title>Node2</title>
<g id="a_node2"><a xlink:href="structnode.html" target="_top" xlink:title="node">
<polygon fill="#ffffff" stroke="#000000" points="12.5,-112.5 12.5,-131.5 50.5,-131.5 50.5,-112.5 12.5,-112.5"/>
<text text-anchor="middle" x="31.5" y="-119.5" font-family="Helvetica,sans-Serif" font-size="10.00" fill="#000000">node</text>
</a>
</g>
</g>
<!-- Node2&#45;&gt;Node1 -->
<g id="edge1" class="edge">
<title>Node2&#45;&gt;Node1</title>
<path fill="none" stroke="#9a32cd" stroke-dasharray="5,2" d="M31.5,-102.2702C31.5,-77.9985 31.5,-37.7725 31.5,-19.5249"/>
<polygon fill="#9a32cd" stroke="#9a32cd" points="28.0001,-102.4509 31.5,-112.4509 35.0001,-102.451 28.0001,-102.4509"/>
<text text-anchor="middle" x="44" y="-52" font-family="Helvetica,sans-Serif" font-size="10.00" fill="#000000"> head</text>
<text text-anchor="middle" x="44" y="-41" font-family="Helvetica,sans-Serif" font-size="10.00" fill="#000000">tail</text>
</g>
<!-- Node2&#45;&gt;Node2 -->
<g id="edge2" class="edge">
<title>Node2&#45;&gt;Node2</title>
<path fill="none" stroke="#9a32cd" stroke-dasharray="5,2" d="M51.1056,-135.2025C60.3667,-136.7368 68.5,-132.3359 68.5,-122 68.5,-108.2188 54.0409,-104.9888 41.728,-112.3101"/>
<polygon fill="#9a32cd" stroke="#9a32cd" points="52.3203,-131.9201 41.728,-131.6899 49.8649,-138.4753 52.3203,-131.9201"/>
<text text-anchor="middle" x="90" y="-158" font-family="Helvetica,sans-Serif" font-size="10.00" fill="#000000"> leftNode</text>
<text text-anchor="middle" x="90" y="-147" font-family="Helvetica,sans-Serif" font-size="10.00" fill="#000000">next</text>
<text text-anchor="middle" x="90" y="-136" font-family="Helvetica,sans-Serif" font-size="10.00" fill="#000000">right</text>
<text text-anchor="middle" x="90" y="-125" font-family="Helvetica,sans-Serif" font-size="10.00" fill="#000000">left</text>
<text text-anchor="middle" x="90" y="-114" font-family="Helvetica,sans-Serif" font-size="10.00" fill="#000000">par</text>
<text text-anchor="middle" x="90" y="-103" font-family="Helvetica,sans-Serif" font-size="10.00" fill="#000000">link</text>
<text text-anchor="middle" x="90" y="-92" font-family="Helvetica,sans-Serif" font-size="10.00" fill="#000000">pre</text>
<text text-anchor="middle" x="90" y="-81" font-family="Helvetica,sans-Serif" font-size="10.00" fill="#000000">rightNode</text>
</g>
</g>
</svg>
