<?xml version="1.0" encoding="UTF-8" standalone="no"?>
<!DOCTYPE svg PUBLIC "-//W3C//DTD SVG 1.1//EN"
 "http://www.w3.org/Graphics/SVG/1.1/DTD/svg11.dtd">
<!-- Generated by graphviz version 2.40.1 (20161225.0304)
 -->
<!-- Title: main Pages: 1 -->
<svg width="128pt" height="66pt"
 viewBox="0.00 0.00 128.00 66.00" xmlns="http://www.w3.org/2000/svg" xmlns:xlink="http://www.w3.org/1999/xlink">
<g id="graph0" class="graph" transform="scale(1 1) rotate(0) translate(4 62)">
<title>main</title>
<polygon fill="#ffffff" stroke="transparent" points="-4,4 -4,-62 124,-62 124,4 -4,4"/>
<!-- Node2 -->
<g id="node1" class="node">
<title>Node2</title>
<polygon fill="#bfbfbf" stroke="#000000" points="0,-19.5 0,-38.5 38,-38.5 38,-19.5 0,-19.5"/>
<text text-anchor="middle" x="19" y="-26.5" font-family="Helvetica,sans-Serif" font-size="10.00" fill="#000000">main</text>
</g>
<!-- Node3 -->
<g id="node2" class="node">
<title>Node3</title>
<g id="a_node2"><a xlink:href="../../da/d7a/newton-raphson-root_8c.html#a72f87d423a488946b319627a454d3925" target="_top" xlink:title="func">
<polygon fill="#ffffff" stroke="#000000" points="79.5,-38.5 79.5,-57.5 114.5,-57.5 114.5,-38.5 79.5,-38.5"/>
<text text-anchor="middle" x="97" y="-45.5" font-family="Helvetica,sans-Serif" font-size="10.00" fill="#000000">func</text>
</a>
</g>
</g>
<!-- Node2&#45;&gt;Node3 -->
<g id="edge1" class="edge">
<title>Node2&#45;&gt;Node3</title>
<path fill="none" stroke="#191970" d="M38.2809,-33.6966C47.687,-35.9879 59.1699,-38.785 69.4783,-41.296"/>
<polygon fill="#191970" stroke="#191970" points="68.7304,-44.7161 79.2747,-43.6823 70.3871,-37.915 68.7304,-44.7161"/>
</g>
<!-- Node4 -->
<g id="node3" class="node">
<title>Node4</title>
<g id="a_node3"><a xlink:href="../../da/d7a/newton-raphson-root_8c.html#ae713a1fd0c275fbec7edf263ac2c0337" target="_top" xlink:title="d_func">
<polygon fill="#ffffff" stroke="#000000" points="74,-.5 74,-19.5 120,-19.5 120,-.5 74,-.5"/>
<text text-anchor="middle" x="97" y="-7.5" font-family="Helvetica,sans-Serif" font-size="10.00" fill="#000000">d_func</text>
</a>
</g>
</g>
<!-- Node2&#45;&gt;Node4 -->
<g id="edge2" class="edge">
<title>Node2&#45;&gt;Node4</title>
<path fill="none" stroke="#191970" d="M38.2809,-24.3034C45.9981,-22.4235 55.1132,-20.2032 63.8307,-18.0797"/>
<polygon fill="#191970" stroke="#191970" points="64.8865,-21.425 73.774,-15.6576 63.2297,-14.6238 64.8865,-21.425"/>
</g>
</g>
</svg>
