<?xml version="1.0" encoding="UTF-8" standalone="no"?>
<!DOCTYPE svg PUBLIC "-//W3C//DTD SVG 1.1//EN"
 "http://www.w3.org/Graphics/SVG/1.1/DTD/svg11.dtd">
<!-- Generated by graphviz version 2.40.1 (20161225.0304)
 -->
<!-- Title: numerical_methods/durand_kerner_roots.c Pages: 1 -->
<svg width="566pt" height="151pt"
 viewBox="0.00 0.00 565.50 151.00" xmlns="http://www.w3.org/2000/svg" xmlns:xlink="http://www.w3.org/1999/xlink">
<g id="graph0" class="graph" transform="scale(1 1) rotate(0) translate(4 147)">
<title>numerical_methods/durand_kerner_roots.c</title>
<polygon fill="#ffffff" stroke="transparent" points="-4,4 -4,-147 561.5,-147 561.5,4 -4,4"/>
<!-- Node0 -->
<g id="node1" class="node">
<title>Node0</title>
<polygon fill="#bfbfbf" stroke="#000000" points="181.5,-112.5 181.5,-142.5 315.5,-142.5 315.5,-112.5 181.5,-112.5"/>
<text text-anchor="start" x="189.5" y="-130.5" font-family="Helvetica,sans-Serif" font-size="10.00" fill="#000000">numerical_methods/durand</text>
<text text-anchor="middle" x="248.5" y="-119.5" font-family="Helvetica,sans-Serif" font-size="10.00" fill="#000000">_kerner_roots.c</text>
</g>
<!-- Node1 -->
<g id="node2" class="node">
<title>Node1</title>
<polygon fill="#ffffff" stroke="#bfbfbf" points="0,-56.5 0,-75.5 47,-75.5 47,-56.5 0,-56.5"/>
<text text-anchor="middle" x="23.5" y="-63.5" font-family="Helvetica,sans-Serif" font-size="10.00" fill="#000000">math.h</text>
</g>
<!-- Node0&#45;&gt;Node1 -->
<g id="edge1" class="edge">
<title>Node0&#45;&gt;Node1</title>
<path fill="none" stroke="#191970" d="M190.3926,-112.434C154.5534,-103.0214 107.4221,-90.429 57.0447,-76.0944"/>
<polygon fill="#191970" stroke="#191970" points="57.8428,-72.6825 47.2661,-73.3015 55.9204,-79.4133 57.8428,-72.6825"/>
</g>
<!-- Node2 -->
<g id="node3" class="node">
<title>Node2</title>
<polygon fill="#ffffff" stroke="#bfbfbf" points="65.5,-56.5 65.5,-75.5 109.5,-75.5 109.5,-56.5 65.5,-56.5"/>
<text text-anchor="middle" x="87.5" y="-63.5" font-family="Helvetica,sans-Serif" font-size="10.00" fill="#000000">time.h</text>
</g>
<!-- Node0&#45;&gt;Node2 -->
<g id="edge2" class="edge">
<title>Node0&#45;&gt;Node2</title>
<path fill="none" stroke="#191970" d="M209.115,-112.4554C181.5011,-101.9073 145.0642,-87.9888 119.2957,-78.1456"/>
<polygon fill="#191970" stroke="#191970" points="120.2342,-74.7574 109.6435,-74.4586 117.7362,-81.2966 120.2342,-74.7574"/>
</g>
<!-- Node3 -->
<g id="node4" class="node">
<title>Node3</title>
<polygon fill="#ffffff" stroke="#bfbfbf" points="127.5,-56.5 127.5,-75.5 173.5,-75.5 173.5,-56.5 127.5,-56.5"/>
<text text-anchor="middle" x="150.5" y="-63.5" font-family="Helvetica,sans-Serif" font-size="10.00" fill="#000000">stdio.h</text>
</g>
<!-- Node0&#45;&gt;Node3 -->
<g id="edge3" class="edge">
<title>Node0&#45;&gt;Node3</title>
<path fill="none" stroke="#191970" d="M224.5265,-112.4554C209.3224,-102.9141 189.7241,-90.6151 174.5125,-81.0691"/>
<polygon fill="#191970" stroke="#191970" points="176.0172,-77.8813 165.6865,-75.5303 172.2963,-83.8105 176.0172,-77.8813"/>
</g>
<!-- Node4 -->
<g id="node5" class="node">
<title>Node4</title>
<polygon fill="#ffffff" stroke="#bfbfbf" points="191.5,-56.5 191.5,-75.5 239.5,-75.5 239.5,-56.5 191.5,-56.5"/>
<text text-anchor="middle" x="215.5" y="-63.5" font-family="Helvetica,sans-Serif" font-size="10.00" fill="#000000">stdlib.h</text>
</g>
<!-- Node0&#45;&gt;Node4 -->
<g id="edge4" class="edge">
<title>Node0&#45;&gt;Node4</title>
<path fill="none" stroke="#191970" d="M240.3427,-112.2977C235.9051,-104.0277 230.375,-93.7215 225.6596,-84.9339"/>
<polygon fill="#191970" stroke="#191970" points="228.596,-83.0037 220.7837,-75.8469 222.4279,-86.3134 228.596,-83.0037"/>
</g>
<!-- Node5 -->
<g id="node6" class="node">
<title>Node5</title>
<polygon fill="#ffffff" stroke="#bfbfbf" points="258,-56.5 258,-75.5 307,-75.5 307,-56.5 258,-56.5"/>
<text text-anchor="middle" x="282.5" y="-63.5" font-family="Helvetica,sans-Serif" font-size="10.00" fill="#000000">string.h</text>
</g>
<!-- Node0&#45;&gt;Node5 -->
<g id="edge5" class="edge">
<title>Node0&#45;&gt;Node5</title>
<path fill="none" stroke="#191970" d="M256.9045,-112.2977C261.5257,-103.9388 267.2969,-93.4997 272.1889,-84.6509"/>
<polygon fill="#191970" stroke="#191970" points="275.2809,-86.292 277.0562,-75.8469 269.1548,-82.9051 275.2809,-86.292"/>
</g>
<!-- Node6 -->
<g id="node7" class="node">
<title>Node6</title>
<polygon fill="#ffffff" stroke="#bfbfbf" points="325.5,-56.5 325.5,-75.5 373.5,-75.5 373.5,-56.5 325.5,-56.5"/>
<text text-anchor="middle" x="349.5" y="-63.5" font-family="Helvetica,sans-Serif" font-size="10.00" fill="#000000">limits.h</text>
</g>
<!-- Node0&#45;&gt;Node6 -->
<g id="edge6" class="edge">
<title>Node0&#45;&gt;Node6</title>
<path fill="none" stroke="#191970" d="M273.2074,-112.4554C289.0247,-102.8241 309.4567,-90.3828 325.1949,-80.7996"/>
<polygon fill="#191970" stroke="#191970" points="327.1277,-83.7206 333.8486,-75.5303 323.4871,-77.7418 327.1277,-83.7206"/>
</g>
<!-- Node7 -->
<g id="node8" class="node">
<title>Node7</title>
<polygon fill="#ffffff" stroke="#bfbfbf" points="391.5,-56.5 391.5,-75.5 453.5,-75.5 453.5,-56.5 391.5,-56.5"/>
<text text-anchor="middle" x="422.5" y="-63.5" font-family="Helvetica,sans-Serif" font-size="10.00" fill="#000000">complex.h</text>
</g>
<!-- Node0&#45;&gt;Node7 -->
<g id="edge7" class="edge">
<title>Node0&#45;&gt;Node7</title>
<path fill="none" stroke="#191970" d="M291.0652,-112.4554C320.0975,-102.194 358.1541,-88.7429 385.8409,-78.9571"/>
<polygon fill="#191970" stroke="#191970" points="387.2741,-82.1628 395.5362,-75.5303 384.9414,-75.5629 387.2741,-82.1628"/>
</g>
<!-- Node8 -->
<g id="node9" class="node">
<title>Node8</title>
<g id="a_node9"><a xlink:href="../../d2/da3/function__timer_8h.html" target="_top" xlink:title="Provides wrappers around C++ high&#45;precesion timer from &quot;std::chrono&quot; to C and C++ as a library...">
<polygon fill="#ffffff" stroke="#000000" points="471.5,-56.5 471.5,-75.5 557.5,-75.5 557.5,-56.5 471.5,-56.5"/>
<text text-anchor="middle" x="514.5" y="-63.5" font-family="Helvetica,sans-Serif" font-size="10.00" fill="#000000">function_timer.h</text>
</a>
</g>
</g>
<!-- Node0&#45;&gt;Node8 -->
<g id="edge8" class="edge">
<title>Node0&#45;&gt;Node8</title>
<path fill="none" stroke="#191970" d="M313.5709,-112.4554C359.7057,-101.7889 420.7467,-87.6761 463.3942,-77.8158"/>
<polygon fill="#191970" stroke="#191970" points="464.3249,-81.193 473.2794,-75.5303 462.748,-74.373 464.3249,-81.193"/>
</g>
<!-- Node9 -->
<g id="node10" class="node">
<title>Node9</title>
<polygon fill="#ffffff" stroke="#bfbfbf" points="488.5,-.5 488.5,-19.5 540.5,-19.5 540.5,-.5 488.5,-.5"/>
<text text-anchor="middle" x="514.5" y="-7.5" font-family="Helvetica,sans-Serif" font-size="10.00" fill="#000000">stdarg.h</text>
</g>
<!-- Node8&#45;&gt;Node9 -->
<g id="edge9" class="edge">
<title>Node8&#45;&gt;Node9</title>
<path fill="none" stroke="#191970" d="M514.5,-56.2455C514.5,-48.9382 514.5,-38.6944 514.5,-29.7046"/>
<polygon fill="#191970" stroke="#191970" points="518.0001,-29.6426 514.5,-19.6427 511.0001,-29.6427 518.0001,-29.6426"/>
</g>
</g>
</svg>
