<?xml version="1.0" encoding="UTF-8" standalone="no"?>
<!DOCTYPE svg PUBLIC "-//W3C//DTD SVG 1.1//EN"
 "http://www.w3.org/Graphics/SVG/1.1/DTD/svg11.dtd">
<!-- Generated by graphviz version 2.44.0 (20200408.0750)
 -->
<!-- Title: main Pages: 1 -->
<svg width="337pt" height="142pt"
 viewBox="0.00 0.00 337.00 142.00" xmlns="http://www.w3.org/2000/svg" xmlns:xlink="http://www.w3.org/1999/xlink">
<g id="graph0" class="graph" transform="scale(1 1) rotate(0) translate(4 138)">
<title>main</title>
<polygon fill="white" stroke="transparent" points="-4,4 -4,-138 333,-138 333,4 -4,4"/>
<!-- Node1 -->
<g id="node1" class="node">
<title>Node1</title>
<g id="a_node1"><a xlink:title=" ">
<polygon fill="#bfbfbf" stroke="black" points="0,-57.5 0,-76.5 38,-76.5 38,-57.5 0,-57.5"/>
<text text-anchor="middle" x="19" y="-64.5" font-family="Helvetica,sans-Serif" font-size="10.00">main</text>
</a>
</g>
</g>
<!-- Node2 -->
<g id="node2" class="node">
<title>Node2</title>
<g id="a_node2"><a xlink:href="../../dd/d8c/adaline__learning_8c.html#ab4ecb3accf5d9e0263087e7265bbe3a9" target="_top" xlink:title=" ">
<polygon fill="white" stroke="black" points="74,-95.5 74,-114.5 112,-114.5 112,-95.5 74,-95.5"/>
<text text-anchor="middle" x="93" y="-102.5" font-family="Helvetica,sans-Serif" font-size="10.00">test1</text>
</a>
</g>
</g>
<!-- Node1&#45;&gt;Node2 -->
<g id="edge1" class="edge">
<title>Node1&#45;&gt;Node2</title>
<path fill="none" stroke="midnightblue" d="M38.17,-76.59C46.21,-80.83 55.83,-85.91 64.71,-90.6"/>
<polygon fill="midnightblue" stroke="midnightblue" points="63.11,-93.71 73.59,-95.28 66.38,-87.52 63.11,-93.71"/>
</g>
<!-- Node8 -->
<g id="node8" class="node">
<title>Node8</title>
<g id="a_node8"><a xlink:href="../../dd/d8c/adaline__learning_8c.html#a05cc9a0acb524fde727a4d7b4a747ee6" target="_top" xlink:title=" ">
<polygon fill="white" stroke="black" points="74,-57.5 74,-76.5 112,-76.5 112,-57.5 74,-57.5"/>
<text text-anchor="middle" x="93" y="-64.5" font-family="Helvetica,sans-Serif" font-size="10.00">test2</text>
</a>
</g>
</g>
<!-- Node1&#45;&gt;Node8 -->
<g id="edge7" class="edge">
<title>Node1&#45;&gt;Node8</title>
<path fill="none" stroke="midnightblue" d="M38.17,-67C45.87,-67 55.03,-67 63.58,-67"/>
<polygon fill="midnightblue" stroke="midnightblue" points="63.59,-70.5 73.59,-67 63.59,-63.5 63.59,-70.5"/>
</g>
<!-- Node9 -->
<g id="node9" class="node">
<title>Node9</title>
<g id="a_node9"><a xlink:href="../../dd/d8c/adaline__learning_8c.html#a3f37b9f073f7e57fd0b39d70718af1b1" target="_top" xlink:title=" ">
<polygon fill="white" stroke="black" points="74,-19.5 74,-38.5 112,-38.5 112,-19.5 74,-19.5"/>
<text text-anchor="middle" x="93" y="-26.5" font-family="Helvetica,sans-Serif" font-size="10.00">test3</text>
</a>
</g>
</g>
<!-- Node1&#45;&gt;Node9 -->
<g id="edge12" class="edge">
<title>Node1&#45;&gt;Node9</title>
<path fill="none" stroke="midnightblue" d="M38.17,-57.41C46.21,-53.17 55.83,-48.09 64.71,-43.4"/>
<polygon fill="midnightblue" stroke="midnightblue" points="66.38,-46.48 73.59,-38.72 63.11,-40.29 66.38,-46.48"/>
</g>
<!-- Node3 -->
<g id="node3" class="node">
<title>Node3</title>
<g id="a_node3"><a xlink:href="../../dd/d8c/adaline__learning_8c.html#ac83fe58d6a240b6243261b705ae81326" target="_top" xlink:title=" ">
<polygon fill="white" stroke="black" points="176.5,-38.5 176.5,-57.5 205.5,-57.5 205.5,-38.5 176.5,-38.5"/>
<text text-anchor="middle" x="191" y="-45.5" font-family="Helvetica,sans-Serif" font-size="10.00">fit</text>
</a>
</g>
</g>
<!-- Node2&#45;&gt;Node3 -->
<g id="edge2" class="edge">
<title>Node2&#45;&gt;Node3</title>
<path fill="none" stroke="midnightblue" d="M106.43,-95.24C117.1,-87.11 133.07,-75.53 148,-67 154.02,-63.56 160.77,-60.27 167.08,-57.43"/>
<polygon fill="midnightblue" stroke="midnightblue" points="168.66,-60.56 176.44,-53.37 165.87,-54.14 168.66,-60.56"/>
</g>
<!-- Node4 -->
<g id="node4" class="node">
<title>Node4</title>
<g id="a_node4"><a xlink:href="../../dd/d8c/adaline__learning_8c.html#a00dc6134ca22a12e0fd9cac54d601c2d" target="_top" xlink:title=" ">
<polygon fill="white" stroke="black" points="148,-0.5 148,-19.5 234,-19.5 234,-0.5 148,-0.5"/>
<text text-anchor="middle" x="191" y="-7.5" font-family="Helvetica,sans-Serif" font-size="10.00">get_weights_str</text>
</a>
</g>
</g>
<!-- Node2&#45;&gt;Node4 -->
<g id="edge3" class="edge">
<title>Node2&#45;&gt;Node4</title>
<path fill="none" stroke="midnightblue" d="M103.91,-95.27C106.65,-92.39 109.55,-89.16 112,-86 130.39,-62.35 125.4,-48.67 148,-29 149.72,-27.51 151.57,-26.11 153.51,-24.81"/>
<polygon fill="midnightblue" stroke="midnightblue" points="155.48,-27.71 162.4,-19.69 151.98,-21.65 155.48,-27.71"/>
</g>
<!-- Node5 -->
<g id="node5" class="node">
<title>Node5</title>
<g id="a_node5"><a xlink:href="../../dd/d8c/adaline__learning_8c.html#acd88962c5f6341e43cbc69b4a7d3485b" target="_top" xlink:title=" ">
<polygon fill="white" stroke="black" points="155.5,-114.5 155.5,-133.5 226.5,-133.5 226.5,-114.5 155.5,-114.5"/>
<text text-anchor="middle" x="191" y="-121.5" font-family="Helvetica,sans-Serif" font-size="10.00">new_adaline</text>
</a>
</g>
</g>
<!-- Node2&#45;&gt;Node5 -->
<g id="edge4" class="edge">
<title>Node2&#45;&gt;Node5</title>
<path fill="none" stroke="midnightblue" d="M112.06,-108.57C121.47,-110.44 133.43,-112.8 145.15,-115.12"/>
<polygon fill="midnightblue" stroke="midnightblue" points="144.82,-118.63 155.31,-117.13 146.18,-111.76 144.82,-118.63"/>
</g>
<!-- Node6 -->
<g id="node6" class="node">
<title>Node6</title>
<g id="a_node6"><a xlink:href="../../dd/d8c/adaline__learning_8c.html#a4db1ba00a7f282100ea31a94e32bd7a3" target="_top" xlink:title=" ">
<polygon fill="white" stroke="black" points="168,-76.5 168,-95.5 214,-95.5 214,-76.5 168,-76.5"/>
<text text-anchor="middle" x="191" y="-83.5" font-family="Helvetica,sans-Serif" font-size="10.00">predict</text>
</a>
</g>
</g>
<!-- Node2&#45;&gt;Node6 -->
<g id="edge5" class="edge">
<title>Node2&#45;&gt;Node6</title>
<path fill="none" stroke="midnightblue" d="M112.06,-101.43C124.94,-98.88 142.62,-95.38 157.89,-92.36"/>
<polygon fill="midnightblue" stroke="midnightblue" points="158.85,-95.73 167.98,-90.36 157.49,-88.87 158.85,-95.73"/>
</g>
<!-- Node7 -->
<g id="node7" class="node">
<title>Node7</title>
<g id="a_node7"><a xlink:href="../../dd/d8c/adaline__learning_8c.html#a7b12b6513314c975303b5a698608322f" target="_top" xlink:title=" ">
<polygon fill="white" stroke="black" points="270,-76.5 270,-95.5 329,-95.5 329,-76.5 270,-76.5"/>
<text text-anchor="middle" x="299.5" y="-83.5" font-family="Helvetica,sans-Serif" font-size="10.00">activation</text>
</a>
</g>
</g>
<!-- Node6&#45;&gt;Node7 -->
<g id="edge6" class="edge">
<title>Node6&#45;&gt;Node7</title>
<path fill="none" stroke="midnightblue" d="M214.07,-86C227.23,-86 244.33,-86 259.69,-86"/>
<polygon fill="midnightblue" stroke="midnightblue" points="259.98,-89.5 269.98,-86 259.98,-82.5 259.98,-89.5"/>
</g>
<!-- Node8&#45;&gt;Node3 -->
<g id="edge8" class="edge">
<title>Node8&#45;&gt;Node3</title>
<path fill="none" stroke="midnightblue" d="M112.06,-63.43C127.38,-60.39 149.49,-56.02 166.25,-52.7"/>
<polygon fill="midnightblue" stroke="midnightblue" points="167.24,-56.07 176.37,-50.7 165.88,-49.21 167.24,-56.07"/>
</g>
<!-- Node8&#45;&gt;Node4 -->
<g id="edge9" class="edge">
<title>Node8&#45;&gt;Node4</title>
<path fill="none" stroke="midnightblue" d="M106.43,-57.24C117.1,-49.11 133.07,-37.53 148,-29 151.01,-27.28 154.2,-25.6 157.43,-23.99"/>
<polygon fill="midnightblue" stroke="midnightblue" points="158.97,-27.14 166.5,-19.69 155.97,-20.81 158.97,-27.14"/>
</g>
<!-- Node8&#45;&gt;Node5 -->
<g id="edge10" class="edge">
<title>Node8&#45;&gt;Node5</title>
<path fill="none" stroke="midnightblue" d="M106.43,-76.76C117.1,-84.89 133.07,-96.47 148,-105 151.01,-106.72 154.2,-108.4 157.43,-110.01"/>
<polygon fill="midnightblue" stroke="midnightblue" points="155.97,-113.19 166.5,-114.31 158.97,-106.86 155.97,-113.19"/>
</g>
<!-- Node8&#45;&gt;Node6 -->
<g id="edge11" class="edge">
<title>Node8&#45;&gt;Node6</title>
<path fill="none" stroke="midnightblue" d="M112.06,-70.57C124.94,-73.12 142.62,-76.62 157.89,-79.64"/>
<polygon fill="midnightblue" stroke="midnightblue" points="157.49,-83.13 167.98,-81.64 158.85,-76.27 157.49,-83.13"/>
</g>
<!-- Node9&#45;&gt;Node3 -->
<g id="edge13" class="edge">
<title>Node9&#45;&gt;Node3</title>
<path fill="none" stroke="midnightblue" d="M112.06,-32.57C127.38,-35.61 149.49,-39.98 166.25,-43.3"/>
<polygon fill="midnightblue" stroke="midnightblue" points="165.88,-46.79 176.37,-45.3 167.24,-39.93 165.88,-46.79"/>
</g>
<!-- Node9&#45;&gt;Node4 -->
<g id="edge14" class="edge">
<title>Node9&#45;&gt;Node4</title>
<path fill="none" stroke="midnightblue" d="M112.06,-25.43C119.48,-23.96 128.48,-22.18 137.7,-20.35"/>
<polygon fill="midnightblue" stroke="midnightblue" points="138.6,-23.74 147.73,-18.37 137.24,-16.87 138.6,-23.74"/>
</g>
<!-- Node9&#45;&gt;Node5 -->
<g id="edge15" class="edge">
<title>Node9&#45;&gt;Node5</title>
<path fill="none" stroke="midnightblue" d="M103.91,-38.73C106.65,-41.61 109.55,-44.84 112,-48 130.39,-71.65 125.4,-85.33 148,-105 149.72,-106.49 151.57,-107.89 153.51,-109.19"/>
<polygon fill="midnightblue" stroke="midnightblue" points="151.98,-112.35 162.4,-114.31 155.48,-106.29 151.98,-112.35"/>
</g>
<!-- Node9&#45;&gt;Node6 -->
<g id="edge16" class="edge">
<title>Node9&#45;&gt;Node6</title>
<path fill="none" stroke="midnightblue" d="M106.43,-38.76C117.1,-46.89 133.07,-58.47 148,-67 151.42,-68.95 155.08,-70.86 158.76,-72.66"/>
<polygon fill="midnightblue" stroke="midnightblue" points="157.27,-75.83 167.81,-76.9 160.24,-69.49 157.27,-75.83"/>
</g>
</g>
</svg>
