<?xml version="1.0" encoding="UTF-8" standalone="no"?>
<!DOCTYPE svg PUBLIC "-//W3C//DTD SVG 1.1//EN"
 "http://www.w3.org/Graphics/SVG/1.1/DTD/svg11.dtd">
<!-- Generated by graphviz version 2.44.0 (20200408.0750)
 -->
<!-- Title: test1 Pages: 1 -->
<svg width="263pt" height="142pt"
 viewBox="0.00 0.00 263.00 142.00" xmlns="http://www.w3.org/2000/svg" xmlns:xlink="http://www.w3.org/1999/xlink">
<g id="graph0" class="graph" transform="scale(1 1) rotate(0) translate(4 138)">
<title>test1</title>
<polygon fill="white" stroke="transparent" points="-4,4 -4,-138 259,-138 259,4 -4,4"/>
<!-- Node1 -->
<g id="node1" class="node">
<title>Node1</title>
<g id="a_node1"><a xlink:title=" ">
<polygon fill="#bfbfbf" stroke="black" points="0,-57.5 0,-76.5 38,-76.5 38,-57.5 0,-57.5"/>
<text text-anchor="middle" x="19" y="-64.5" font-family="Helvetica,sans-Serif" font-size="10.00">test1</text>
</a>
</g>
</g>
<!-- Node2 -->
<g id="node2" class="node">
<title>Node2</title>
<g id="a_node2"><a xlink:href="../../dd/d8c/adaline__learning_8c.html#ac83fe58d6a240b6243261b705ae81326" target="_top" xlink:title=" ">
<polygon fill="white" stroke="black" points="102.5,-114.5 102.5,-133.5 131.5,-133.5 131.5,-114.5 102.5,-114.5"/>
<text text-anchor="middle" x="117" y="-121.5" font-family="Helvetica,sans-Serif" font-size="10.00">fit</text>
</a>
</g>
</g>
<!-- Node1&#45;&gt;Node2 -->
<g id="edge1" class="edge">
<title>Node1&#45;&gt;Node2</title>
<path fill="none" stroke="midnightblue" d="M32.43,-76.76C43.1,-84.89 59.07,-96.47 74,-105 80.02,-108.44 86.77,-111.73 93.08,-114.57"/>
<polygon fill="midnightblue" stroke="midnightblue" points="91.87,-117.86 102.44,-118.63 94.66,-111.44 91.87,-117.86"/>
</g>
<!-- Node3 -->
<g id="node3" class="node">
<title>Node3</title>
<g id="a_node3"><a xlink:href="../../dd/d8c/adaline__learning_8c.html#a00dc6134ca22a12e0fd9cac54d601c2d" target="_top" xlink:title=" ">
<polygon fill="white" stroke="black" points="74,-76.5 74,-95.5 160,-95.5 160,-76.5 74,-76.5"/>
<text text-anchor="middle" x="117" y="-83.5" font-family="Helvetica,sans-Serif" font-size="10.00">get_weights_str</text>
</a>
</g>
</g>
<!-- Node1&#45;&gt;Node3 -->
<g id="edge2" class="edge">
<title>Node1&#45;&gt;Node3</title>
<path fill="none" stroke="midnightblue" d="M38.06,-70.57C45.48,-72.04 54.48,-73.82 63.7,-75.65"/>
<polygon fill="midnightblue" stroke="midnightblue" points="63.24,-79.13 73.73,-77.63 64.6,-72.26 63.24,-79.13"/>
</g>
<!-- Node4 -->
<g id="node4" class="node">
<title>Node4</title>
<g id="a_node4"><a xlink:href="../../dd/d8c/adaline__learning_8c.html#acd88962c5f6341e43cbc69b4a7d3485b" target="_top" xlink:title=" ">
<polygon fill="white" stroke="black" points="81.5,-38.5 81.5,-57.5 152.5,-57.5 152.5,-38.5 81.5,-38.5"/>
<text text-anchor="middle" x="117" y="-45.5" font-family="Helvetica,sans-Serif" font-size="10.00">new_adaline</text>
</a>
</g>
</g>
<!-- Node1&#45;&gt;Node4 -->
<g id="edge3" class="edge">
<title>Node1&#45;&gt;Node4</title>
<path fill="none" stroke="midnightblue" d="M38.06,-63.43C47.47,-61.56 59.43,-59.2 71.15,-56.88"/>
<polygon fill="midnightblue" stroke="midnightblue" points="72.18,-60.24 81.31,-54.87 70.82,-53.37 72.18,-60.24"/>
</g>
<!-- Node5 -->
<g id="node5" class="node">
<title>Node5</title>
<g id="a_node5"><a xlink:href="../../dd/d8c/adaline__learning_8c.html#a4db1ba00a7f282100ea31a94e32bd7a3" target="_top" xlink:title=" ">
<polygon fill="white" stroke="black" points="94,-0.5 94,-19.5 140,-19.5 140,-0.5 94,-0.5"/>
<text text-anchor="middle" x="117" y="-7.5" font-family="Helvetica,sans-Serif" font-size="10.00">predict</text>
</a>
</g>
</g>
<!-- Node1&#45;&gt;Node5 -->
<g id="edge4" class="edge">
<title>Node1&#45;&gt;Node5</title>
<path fill="none" stroke="midnightblue" d="M32.43,-57.24C43.1,-49.11 59.07,-37.53 74,-29 77.42,-27.05 81.08,-25.14 84.76,-23.34"/>
<polygon fill="midnightblue" stroke="midnightblue" points="86.24,-26.51 93.81,-19.1 83.27,-20.17 86.24,-26.51"/>
</g>
<!-- Node6 -->
<g id="node6" class="node">
<title>Node6</title>
<g id="a_node6"><a xlink:href="../../dd/d8c/adaline__learning_8c.html#a7b12b6513314c975303b5a698608322f" target="_top" xlink:title=" ">
<polygon fill="white" stroke="black" points="196,-0.5 196,-19.5 255,-19.5 255,-0.5 196,-0.5"/>
<text text-anchor="middle" x="225.5" y="-7.5" font-family="Helvetica,sans-Serif" font-size="10.00">activation</text>
</a>
</g>
</g>
<!-- Node5&#45;&gt;Node6 -->
<g id="edge5" class="edge">
<title>Node5&#45;&gt;Node6</title>
<path fill="none" stroke="midnightblue" d="M140.07,-10C153.23,-10 170.33,-10 185.69,-10"/>
<polygon fill="midnightblue" stroke="midnightblue" points="185.98,-13.5 195.98,-10 185.98,-6.5 185.98,-13.5"/>
</g>
</g>
</svg>
