<?xml version="1.0" encoding="UTF-8" standalone="no"?>
<!DOCTYPE svg PUBLIC "-//W3C//DTD SVG 1.1//EN"
 "http://www.w3.org/Graphics/SVG/1.1/DTD/svg11.dtd">
<!-- Generated by graphviz version 2.44.0 (20200408.0750)
 -->
<!-- Title: main Pages: 1 -->
<svg width="364pt" height="199pt"
 viewBox="0.00 0.00 364.00 199.00" xmlns="http://www.w3.org/2000/svg" xmlns:xlink="http://www.w3.org/1999/xlink">
<g id="graph0" class="graph" transform="scale(1 1) rotate(0) translate(4 195)">
<title>main</title>
<polygon fill="white" stroke="transparent" points="-4,4 -4,-195 360,-195 360,4 -4,4"/>
<!-- Node1 -->
<g id="node1" class="node">
<title>Node1</title>
<g id="a_node1"><a xlink:title=" ">
<polygon fill="#bfbfbf" stroke="black" points="0,-114.5 0,-133.5 38,-133.5 38,-114.5 0,-114.5"/>
<text text-anchor="middle" x="19" y="-121.5" font-family="Helvetica,sans-Serif" font-size="10.00">main</text>
</a>
</g>
</g>
<!-- Node2 -->
<g id="node2" class="node">
<title>Node2</title>
<g id="a_node2"><a xlink:href="../../d7/d50/qr__eigen__values_8c.html#a7d96c5e4ae1bd6d29791bcc23a4cb2b0" target="_top" xlink:title=" ">
<polygon fill="white" stroke="black" points="76,-171.5 76,-190.5 152,-190.5 152,-171.5 76,-171.5"/>
<text text-anchor="middle" x="114" y="-178.5" font-family="Helvetica,sans-Serif" font-size="10.00">create_matrix</text>
</a>
</g>
</g>
<!-- Node1&#45;&gt;Node2 -->
<g id="edge1" class="edge">
<title>Node1&#45;&gt;Node2</title>
<path fill="none" stroke="midnightblue" d="M32.49,-133.65C43.2,-141.71 59.19,-153.26 74,-162 76.7,-163.59 79.56,-165.17 82.44,-166.7"/>
<polygon fill="midnightblue" stroke="midnightblue" points="81.12,-169.95 91.63,-171.35 84.28,-163.71 81.12,-169.95"/>
</g>
<!-- Node3 -->
<g id="node3" class="node">
<title>Node3</title>
<g id="a_node3"><a xlink:href="../../d7/d50/qr__eigen__values_8c.html#a741477692f001a805b0fea942c9dc2b9" target="_top" xlink:title=" ">
<polygon fill="white" stroke="black" points="87,-133.5 87,-152.5 141,-152.5 141,-133.5 87,-133.5"/>
<text text-anchor="middle" x="114" y="-140.5" font-family="Helvetica,sans-Serif" font-size="10.00">mat_mul</text>
</a>
</g>
</g>
<!-- Node1&#45;&gt;Node3 -->
<g id="edge2" class="edge">
<title>Node1&#45;&gt;Node3</title>
<path fill="none" stroke="midnightblue" d="M38.37,-127.75C49.43,-130.01 63.87,-132.96 77.11,-135.67"/>
<polygon fill="midnightblue" stroke="midnightblue" points="76.42,-139.1 86.92,-137.67 77.82,-132.24 76.42,-139.1"/>
</g>
<!-- Node4 -->
<g id="node4" class="node">
<title>Node4</title>
<g id="a_node4"><a xlink:href="../../d4/d68/qr__decompose_8h.html#a90562ce8c3707401e9c5809dece68d6a" target="_top" xlink:title=" ">
<polygon fill="white" stroke="black" points="80,-95.5 80,-114.5 148,-114.5 148,-95.5 80,-95.5"/>
<text text-anchor="middle" x="114" y="-102.5" font-family="Helvetica,sans-Serif" font-size="10.00">print_matrix</text>
</a>
</g>
</g>
<!-- Node1&#45;&gt;Node4 -->
<g id="edge3" class="edge">
<title>Node1&#45;&gt;Node4</title>
<path fill="none" stroke="midnightblue" d="M38.37,-120.25C47.45,-118.39 58.82,-116.07 69.93,-113.8"/>
<polygon fill="midnightblue" stroke="midnightblue" points="70.89,-117.18 79.98,-111.75 69.48,-110.32 70.89,-117.18"/>
</g>
<!-- Node5 -->
<g id="node5" class="node">
<title>Node5</title>
<g id="a_node5"><a xlink:href="../../d4/d68/qr__decompose_8h.html#a45c7640d9d22c89c11beb1f567843c56" target="_top" xlink:title=" ">
<polygon fill="white" stroke="black" points="74,-57.5 74,-76.5 154,-76.5 154,-57.5 74,-57.5"/>
<text text-anchor="middle" x="114" y="-64.5" font-family="Helvetica,sans-Serif" font-size="10.00">qr_decompose</text>
</a>
</g>
</g>
<!-- Node1&#45;&gt;Node5 -->
<g id="edge4" class="edge">
<title>Node1&#45;&gt;Node5</title>
<path fill="none" stroke="midnightblue" d="M32.49,-114.35C43.2,-106.29 59.19,-94.74 74,-86 76.7,-84.41 79.56,-82.83 82.44,-81.3"/>
<polygon fill="midnightblue" stroke="midnightblue" points="84.28,-84.29 91.63,-76.65 81.12,-78.05 84.28,-84.29"/>
</g>
<!-- Node6 -->
<g id="node6" class="node">
<title>Node6</title>
<g id="a_node6"><a xlink:href="../../d4/d68/qr__decompose_8h.html#a3a584b79941a43d775f9d4ce446dbe05" target="_top" xlink:title=" ">
<polygon fill="white" stroke="black" points="294,-76.5 294,-95.5 356,-95.5 356,-76.5 294,-76.5"/>
<text text-anchor="middle" x="325" y="-83.5" font-family="Helvetica,sans-Serif" font-size="10.00">vector_dot</text>
</a>
</g>
</g>
<!-- Node5&#45;&gt;Node6 -->
<g id="edge5" class="edge">
<title>Node5&#45;&gt;Node6</title>
<path fill="none" stroke="midnightblue" d="M134.9,-76.54C141.05,-79.53 147.82,-82.87 154,-86 170.13,-94.19 172.44,-100.65 190,-105 222.76,-113.12 260.95,-106.14 288.16,-98.46"/>
<polygon fill="midnightblue" stroke="midnightblue" points="289.44,-101.73 298.01,-95.51 287.43,-95.02 289.44,-101.73"/>
</g>
<!-- Node7 -->
<g id="node7" class="node">
<title>Node7</title>
<g id="a_node7"><a xlink:href="../../d4/d68/qr__decompose_8h.html#abeec1f78a7a7e7251687e75340331212" target="_top" xlink:title=" ">
<polygon fill="white" stroke="black" points="190,-76.5 190,-95.5 258,-95.5 258,-76.5 190,-76.5"/>
<text text-anchor="middle" x="224" y="-83.5" font-family="Helvetica,sans-Serif" font-size="10.00">vector_mag</text>
</a>
</g>
</g>
<!-- Node5&#45;&gt;Node7 -->
<g id="edge6" class="edge">
<title>Node5&#45;&gt;Node7</title>
<path fill="none" stroke="midnightblue" d="M154.3,-73.91C162.61,-75.38 171.44,-76.93 179.89,-78.42"/>
<polygon fill="midnightblue" stroke="midnightblue" points="179.5,-81.9 189.95,-80.19 180.71,-75.01 179.5,-81.9"/>
</g>
<!-- Node8 -->
<g id="node8" class="node">
<title>Node8</title>
<g id="a_node8"><a xlink:href="../../d4/d68/qr__decompose_8h.html#a82b20e027437df768d7e994cf4cae29f" target="_top" xlink:title=" ">
<polygon fill="white" stroke="black" points="191.5,-38.5 191.5,-57.5 256.5,-57.5 256.5,-38.5 191.5,-38.5"/>
<text text-anchor="middle" x="224" y="-45.5" font-family="Helvetica,sans-Serif" font-size="10.00">vector_proj</text>
</a>
</g>
</g>
<!-- Node5&#45;&gt;Node8 -->
<g id="edge8" class="edge">
<title>Node5&#45;&gt;Node8</title>
<path fill="none" stroke="midnightblue" d="M154.3,-60.09C163.05,-58.55 172.37,-56.91 181.22,-55.35"/>
<polygon fill="midnightblue" stroke="midnightblue" points="182.1,-58.75 191.34,-53.57 180.88,-51.86 182.1,-58.75"/>
</g>
<!-- Node9 -->
<g id="node9" class="node">
<title>Node9</title>
<g id="a_node9"><a xlink:href="../../d4/d68/qr__decompose_8h.html#a6b6a0e75e75ff7919057dd275bb69145" target="_top" xlink:title=" ">
<polygon fill="white" stroke="black" points="191.5,-0.5 191.5,-19.5 256.5,-19.5 256.5,-0.5 191.5,-0.5"/>
<text text-anchor="middle" x="224" y="-7.5" font-family="Helvetica,sans-Serif" font-size="10.00">vector_sub</text>
</a>
</g>
</g>
<!-- Node5&#45;&gt;Node9 -->
<g id="edge10" class="edge">
<title>Node5&#45;&gt;Node9</title>
<path fill="none" stroke="midnightblue" d="M133.32,-57.33C150.49,-48.27 176.37,-34.61 195.93,-24.29"/>
<polygon fill="midnightblue" stroke="midnightblue" points="197.74,-27.29 204.95,-19.53 194.47,-21.1 197.74,-27.29"/>
</g>
<!-- Node7&#45;&gt;Node6 -->
<g id="edge7" class="edge">
<title>Node7&#45;&gt;Node6</title>
<path fill="none" stroke="midnightblue" d="M258.24,-86C266.39,-86 275.2,-86 283.64,-86"/>
<polygon fill="midnightblue" stroke="midnightblue" points="283.68,-89.5 293.68,-86 283.68,-82.5 283.68,-89.5"/>
</g>
<!-- Node8&#45;&gt;Node6 -->
<g id="edge9" class="edge">
<title>Node8&#45;&gt;Node6</title>
<path fill="none" stroke="midnightblue" d="M249.98,-57.59C261.94,-62.18 276.45,-67.75 289.45,-72.74"/>
<polygon fill="midnightblue" stroke="midnightblue" points="288.44,-76.1 299.03,-76.41 290.94,-69.56 288.44,-76.1"/>
</g>
</g>
</svg>
