<?xml version="1.0" encoding="UTF-8" standalone="no"?>
<!DOCTYPE svg PUBLIC "-//W3C//DTD SVG 1.1//EN"
 "http://www.w3.org/Graphics/SVG/1.1/DTD/svg11.dtd">
<!-- Generated by graphviz version 2.40.1 (20161225.0304)
 -->
<!-- Title: T Pages: 1 -->
<svg width="86pt" height="95pt"
 viewBox="0.00 0.00 86.00 95.00" xmlns="http://www.w3.org/2000/svg" xmlns:xlink="http://www.w3.org/1999/xlink">
<g id="graph0" class="graph" transform="scale(1 1) rotate(0) translate(4 91)">
<title>T</title>
<polygon fill="#ffffff" stroke="transparent" points="-4,4 -4,-91 82,-91 82,4 -4,4"/>
<!-- Node1 -->
<g id="node1" class="node">
<title>Node1</title>
<polygon fill="#bfbfbf" stroke="#000000" points="4.5,-.5 4.5,-19.5 33.5,-19.5 33.5,-.5 4.5,-.5"/>
<text text-anchor="middle" x="19" y="-7.5" font-family="Helvetica,sans-Serif" font-size="10.00" fill="#000000">T</text>
</g>
<!-- Node2 -->
<g id="node2" class="node">
<title>Node2</title>
<g id="a_node2"><a xlink:href="../../d0/d6b/structelem.html" target="_top" xlink:title="elem">
<polygon fill="#ffffff" stroke="#000000" points="0,-67.5 0,-86.5 38,-86.5 38,-67.5 0,-67.5"/>
<text text-anchor="middle" x="19" y="-74.5" font-family="Helvetica,sans-Serif" font-size="10.00" fill="#000000">elem</text>
</a>
</g>
</g>
<!-- Node2&#45;&gt;Node1 -->
<g id="edge1" class="edge">
<title>Node2&#45;&gt;Node1</title>
<path fill="none" stroke="#9a32cd" stroke-dasharray="5,2" d="M19,-57.1079C19,-44.714 19,-29.3263 19,-19.5817"/>
<polygon fill="#9a32cd" stroke="#9a32cd" points="15.5001,-57.4005 19,-67.4005 22.5001,-57.4006 15.5001,-57.4005"/>
<text text-anchor="middle" x="31.5" y="-41" font-family="Helvetica,sans-Serif" font-size="10.00" fill="#000000"> head</text>
</g>
<!-- Node2&#45;&gt;Node2 -->
<g id="edge2" class="edge">
<title>Node2&#45;&gt;Node2</title>
<path fill="none" stroke="#9a32cd" stroke-dasharray="5,2" d="M48.2501,-82.5096C52.8553,-81.693 56,-79.8564 56,-77 56,-72.3125 47.5314,-70.3716 38.0372,-71.1772"/>
<polygon fill="#9a32cd" stroke="#9a32cd" points="47.9252,-79.0178 38.0372,-82.8228 48.1398,-86.0145 47.9252,-79.0178"/>
<text text-anchor="middle" x="67" y="-74.5" font-family="Helvetica,sans-Serif" font-size="10.00" fill="#000000"> next</text>
</g>
</g>
</svg>
